<?xml version="1.0" encoding="UTF-8"?>
<svg id="Layer_1" xmlns="http://www.w3.org/2000/svg" version="1.1" viewBox="0 0 284.22 185.49">
  <!-- Generator: Adobe Illustrator 30.1.0, SVG Export Plug-In . SVG Version: 2.1.1 Build 136)  -->
  <defs>
    <style>
      .st0, .st1 {
        fill: #231f20;
      }

      .st1, .st2 {
        fill-rule: evenodd;
      }

      .st3 {
        stroke-miterlimit: 10;
        stroke-width: .54px;
      }

      .st3, .st4, .st5, .st6 {
        fill: none;
        stroke: #231f20;
      }

      .st4 {
        stroke-width: 1.08px;
      }

      .st4, .st5, .st6 {
        stroke-miterlimit: 2.61;
      }

      .st5 {
        stroke-width: .71px;
      }

      .st6 {
        stroke-width: 1.23px;
      }
    </style>
  </defs>
  <g>
    <path class="st0" d="M163.96,115.16h-1.99v-8.54h1.85v1.21c.32-.58.6-.96.86-1.13.26-.18.54-.27.86-.27.45,0,.9.15,1.31.43l-.61,1.96c-.33-.25-.65-.37-.93-.37s-.52.09-.71.26-.34.49-.45.94c-.11.45-.17,1.41-.17,2.86v2.64h-.01ZM158.13,111.07c-.26.1-.66.21-1.21.34-.55.13-.91.27-1.08.39-.26.21-.39.48-.39.8s.1.59.31.82c.21.23.47.34.8.34.36,0,.7-.13,1.03-.4.25-.21.4-.45.48-.75.05-.2.07-.56.07-1.1v-.45h0ZM155.47,109.24l-1.8-.37c.21-.82.55-1.44,1.04-1.83.5-.39,1.24-.6,2.21-.6.9,0,1.55.12,1.99.36.43.23.74.54.92.91.17.37.27,1.04.27,2.02l-.02,2.64c0,.75.04,1.3.1,1.66s.18.74.36,1.14h-1.98c-.05-.15-.11-.37-.2-.66-.04-.13-.06-.22-.07-.27-.34.38-.7.65-1.09.85-.39.18-.8.28-1.24.28-.77,0-1.39-.23-1.83-.71s-.67-1.08-.67-1.82c0-.48.1-.91.31-1.29.21-.38.49-.66.86-.87.37-.2.9-.38,1.58-.53.93-.2,1.57-.38,1.94-.55v-.22c0-.44-.1-.75-.28-.93s-.54-.28-1.07-.28c-.36,0-.63.09-.83.23-.2.16-.36.43-.48.83h0ZM149.95,115.16v-11.79h1.99v11.79h-1.99ZM146.04,115.16v-1.28c-.28.45-.64.81-1.08,1.08-.44.26-.92.39-1.41.39s-.96-.12-1.36-.38-.69-.6-.87-1.07c-.18-.45-.27-1.09-.27-1.89v-5.4h1.99v3.93c0,1.2.04,1.94.11,2.21s.21.48.4.64.44.23.74.23c.34,0,.65-.11.92-.32.27-.21.45-.48.55-.79.1-.32.15-1.08.15-2.31v-3.61h1.99v8.54h-1.85,0ZM134.12,110.76c0,.96.17,1.67.5,2.12s.75.69,1.23.69.85-.21,1.15-.63c.31-.42.47-1.12.47-2.07,0-.9-.16-1.56-.48-2-.32-.43-.71-.65-1.18-.65s-.9.21-1.21.64c-.32.43-.48,1.06-.48,1.89h0ZM132.15,106.62h1.85v1.25c.25-.43.56-.79.98-1.04.42-.27.87-.4,1.37-.4.87,0,1.62.39,2.22,1.17.61.77.92,1.86.92,3.25s-.31,2.53-.92,3.32c-.61.79-1.36,1.19-2.23,1.19-.42,0-.8-.1-1.13-.28s-.69-.52-1.07-.97v4.31h-1.99v-11.79h-.01ZM124.92,110.89c0,.85.17,1.5.53,1.95.36.45.8.67,1.31.67s.96-.22,1.31-.67c.36-.45.53-1.1.53-1.96s-.17-1.48-.53-1.93c-.36-.45-.79-.67-1.31-.67s-.96.22-1.31.67c-.36.45-.53,1.1-.53,1.95h0ZM122.87,110.77c0-.75.16-1.47.49-2.18.33-.7.79-1.24,1.39-1.61.6-.37,1.26-.55,2-.55,1.14,0,2.07.42,2.8,1.26.72.83,1.09,1.9,1.09,3.18s-.37,2.36-1.1,3.21c-.74.85-1.66,1.28-2.77,1.28-.69,0-1.35-.17-1.98-.53-.63-.36-1.1-.87-1.44-1.56-.32-.69-.49-1.51-.49-2.5h.01ZM116.38,110.76c0,.96.17,1.67.5,2.12.33.45.75.69,1.23.69s.85-.21,1.15-.63c.31-.42.47-1.12.47-2.07,0-.9-.16-1.56-.48-2-.32-.43-.71-.65-1.18-.65s-.9.21-1.21.64c-.32.43-.48,1.06-.48,1.89h0ZM114.41,106.62h1.85v1.25c.25-.43.56-.79.98-1.04.42-.27.87-.4,1.37-.4.87,0,1.62.39,2.22,1.17.61.77.92,1.86.92,3.25s-.31,2.53-.92,3.32c-.61.79-1.36,1.19-2.23,1.19-.42,0-.8-.1-1.13-.28s-.69-.52-1.07-.97v4.31h-1.99v-11.79h-.01Z"/>
    <path class="st4" d="M109.76,96.15h55.92v-44.56h-50.37v39.79h-5.63c.02,1.59.06,3.18.09,4.77h0Z"/>
    <line class="st5" x1="108.72" y1="100.47" x2="166.81" y2="100.47"/>
    <path class="st2" d="M152.22,60.4c-1.18-.37-2.23-.28-.98-1.55.85-.86,1.69-1.71,2.53-2.56-.27-.09-.45-.18-.72-.27-1.12,1.06-2.26,1.98-3.44,3.15-.54.54-.5.52-1.26.43-3.75-.4-7.5-.38-11.34.27-5.59-3.99-12.33,1.84-13.88,6.66-.37,1.17.25.93.67-.1,1.98-4.75,7.16-7.83,10.54-7.01,1.25.31,2.88.63.6,1.44-3.83,1.34-6.83,3.88-8.83,8.34-2.82,6.29,3.82,9.72,8.51,5.3,3.39-3.19,5.66-7.1,4.23-12.28-.36-1.3-.86-1.48.99-1.63,1.98-.16,3.9-.17,5.83-.13,1.58.02,2.7-.09,1.4,1.74-3.23,4.54-5.59,10.35-7.91,17.16-1.5,4.39-4.16,9.81-9.08,11.18-1.12.31-4.04,1.04-3.59-1.24.09-.44.12-.9.05-1.32-.49-3.14-4.92-1.42-3.86,1.64.21.61.52,1.1,1.04,1.47,6.81,4.75,14.49-4.76,17.48-9.37,2.92-4.5,5.08-13.88,8.01-19.54.45-.88.69-1.15,1.77-.85,12.15,3.46,4.93,22.35-5.61,18.01-1.45-.6-.91.63-.11.99,14.1,6.6,23.19-14.82,6.93-19.9l.02-.04ZM131.61,74.54c-2.71,1.53-5.61.11-5.23-3.15.39-3.41,3.48-8.31,9.92-10.32.76-.25,1.03.16,1.24.81,1.35,4.31-1.99,10.43-5.93,12.67h-.01Z"/>
    <rect class="st0" x="110.12" y="91.88" width="5.88" height="3.69"/>
    <rect class="st6" x="110.12" y="91.88" width="5.88" height="3.69"/>
    <g>
      <g>
        <path class="st1" d="M144.2,118.13c-.93-1.29-4-.23-4.91.28-6.75,3.84-2.63,9.23,3.28,4.76.44-.39.7-.37.67.02.11.76.25,1.46.67,1.94.39.44.66.25.58-.25-.22-1.21-.44-2.43-.67-3.64-.07-.43-.93-.59-.9.13.04.65.06,1.04-.52,1.44-1.1.76-3.29,1.96-4.63,1.03-1.23-.85-.87-2.39-.02-3.46,1.41-1.77,3.73-2.65,5.89-1.79.6.23.96.09.54-.49"/>
        <path class="st1" d="M145.78,121.49c0,.92-.09,1.85-.1,2.77,0,.52.5.52.67,0,.2-.61.56-1.23,1.02-1.84.29-.39.43-.48.82-.02.27.07.55.01.83-.05.31-.06.11-.09-.06-.27-.36-.36-.53-.72-.58-1.14-.02-.18-.02-.25-.26-.23-.23.01-.43.23-.49.55-.05.31.04.27-.2.48-.27.23-.48.54-.67.88-.4.7-.32.01-.28-.4.09-1.2-.71-1.29-.72-.74"/>
        <path class="st1" d="M154.03,121.84c-.69-1.12-3.05-.6-3.91.2-.54.49-.79,1.15-.55,1.83.5,1.48,2.76,1.08,3.73.45.81-.52,1.28-1.61.74-2.47h0ZM151.89,124.33c-.85,0-1.52-.6-1.52-1.35s.69-1.35,1.52-1.35,1.52.6,1.52,1.35-.69,1.35-1.52,1.35Z"/>
        <path class="st1" d="M155.52,121.54c0,.56-.33,2.17-.16,2.7.48,1.48,2.2.09,2.72-.87.34-.63.52-.32.58.16s-.04.98.49,1.61c.27-.12.55-.34.82-.47-.71-.61-.83-1.63-.83-2.67,0-.61-.64-.34-.72.1-.17.94-2.71,3.61-2.39.99.04-.31.1-.61.16-.91.11-.56.06-.8-.4-.81-.21,0-.25-.02-.25.18"/>
        <path class="st1" d="M161.05,121.64v5.78c0,.67.75.64.72.02-.04-.92-.1-1.83.09-2.78-.09-1.03.02-2.2.99-2.77,3.08-1.86,2.55,4.06-.47,2.48-.43-.22-.52.28-.13.47.75.36,1.62.27,2.28-.23,3.05-2.37.38-4.69-2.06-2.92-.28.21-.54.63-.58.11-.04-.55-.85-.98-.85-.13"/>
      </g>
      <g>
        <path class="st0" d="M117.89,130.78h-2.54v1.21h2.42c.38,0,.64.1.77.28s.2.54.2,1.06v.77c0,.52-.06.86-.2,1.06-.13.18-.39.28-.77.28h-2.39c-.38,0-.64-.1-.77-.28s-.2-.54-.2-1.06v-.16l.8-.25v.66h2.74v-1.29h-2.42c-.38,0-.63-.1-.76-.28s-.2-.54-.2-1.06v-.63c0-.52.06-.86.2-1.06s.38-.28.76-.28h2.2c.37,0,.61.09.75.27s.21.5.21.97v.12l-.8.27v-.64h.01Z"/>
        <path class="st0" d="M120.6,135.44v-5.66h.9v5.66h-.9Z"/>
        <path class="st0" d="M123.47,135.44v-5.66h.61l2.72,3.32c.1.11.17.22.25.32s.13.2.2.31c-.01-.32-.02-.54-.02-.67v-3.28h.81v5.66h-.61l-2.85-3.5c-.07-.09-.12-.17-.18-.25s-.1-.15-.15-.22c0,.17.02.34.02.49v3.46h-.81.01Z"/>
        <path class="st0" d="M133.26,130.79h-2.43v3.58h2.43v-1.21l.9.27v.66c0,.52-.06.87-.2,1.06s-.39.28-.76.28h-2.31c-.38,0-.63-.1-.76-.28s-.2-.54-.2-1.06v-2.98c0-.52.06-.86.2-1.06s.38-.28.76-.28h2.31c.37,0,.63.1.76.28s.2.54.2,1.06v.54l-.9.21v-1.07Z"/>
        <path class="st0" d="M136.03,135.44v-5.66h3.96v.96h-3.07v1.26h1.79v.96h-1.79v1.4h3.1v1.07h-4Z"/>
        <path class="st0" d="M146.26,135.44v-4.58h-.82v-.75l1.64-.37v5.69s-.82,0-.82,0Z"/>
        <path class="st0" d="M153.56,133.2c-.28.06-.56.11-.85.15s-.58.05-.86.05c-.63,0-1.06-.11-1.29-.32-.23-.21-.36-.59-.36-1.14v-.76c0-.47.11-.82.32-1.04s.55-.33,1.01-.33h1.63c.49,0,.82.12,1.01.38s.27.71.27,1.37v.75c0,1.06-.25,1.86-.75,2.44s-1.2.86-2.11.86h-.17s-.07,0-.11-.01l-.53-.91h.25c.82,0,1.42-.11,1.79-.33s.61-.6.75-1.13v-.02ZM153.61,132.33c0-.06.01-.12.01-.18v-.15c0-.55-.05-.9-.15-1.04s-.32-.21-.66-.21h-1.08c-.27,0-.45.05-.56.15s-.16.28-.16.55v.32c0,.27.06.45.17.55s.34.15.69.15c.25,0,.52,0,.8-.04.29-.02.59-.06.91-.11h.04Z"/>
        <path class="st0" d="M156.93,132.03c.29-.06.59-.11.87-.15.28-.04.56-.05.85-.05.63,0,1.06.11,1.29.32.23.21.34.59.34,1.14v.76c0,.47-.11.82-.32,1.04s-.55.33-1.01.33h-1.64c-.49,0-.82-.12-1.01-.38s-.27-.71-.27-1.37v-.75c0-1.06.25-1.86.75-2.44s1.2-.86,2.11-.86h.11s.1,0,.16.02l.54.91h-.25c-.82,0-1.42.11-1.78.33-.37.22-.61.59-.75,1.13h0ZM156.88,132.89v.32c0,.54.05.88.15,1.02s.32.2.65.2h1.08c.27,0,.45-.05.55-.15s.15-.27.15-.54v-.31c0-.26-.06-.44-.17-.54s-.34-.15-.69-.15c-.28,0-.55,0-.85.04s-.58.06-.87.1h0Z"/>
        <path class="st0" d="M162.72,135.44c-.34,0-.59-.07-.7-.23-.12-.16-.18-.44-.18-.87v-.45l.8-.25v.79h2.09c.15,0,.25-.04.29-.1s.07-.21.07-.4v-.42c0-.21-.02-.34-.07-.42s-.15-.11-.29-.11h-1.31v-.92h1.17c.15,0,.25-.04.29-.1s.07-.21.07-.42v-.28c0-.21-.02-.34-.07-.42s-.15-.1-.29-.1h-1.91v.71l-.76-.21v-.36c0-.43.06-.71.18-.87s.36-.23.7-.23h2.1c.34,0,.59.07.7.23s.18.44.18.87v.52c0,.33-.05.58-.16.74s-.31.27-.58.33c.31.04.54.16.69.34s.22.45.22.81v.59c0,.47-.07.79-.21.96s-.38.26-.74.26h-2.27Z"/>
      </g>
    </g>
  </g>
  <g>
    <path class="st0" d="M169.93,55.72v-4.37h1.85c.47,0,.81.04,1.02.12.21.07.38.22.5.42s.2.43.2.69c0,.33-.1.6-.29.81s-.48.34-.86.4c.2.11.34.23.47.37s.29.37.5.71l.53.85h-1.06l-.64-.94c-.22-.34-.38-.55-.47-.64s-.17-.15-.27-.18c-.1-.04-.25-.05-.44-.05h-.18v1.82h-.88.02ZM170.82,53.21h.65c.42,0,.69-.01.8-.05.11-.04.18-.1.25-.18s.09-.2.09-.33c0-.15-.04-.27-.12-.36-.07-.09-.18-.15-.33-.17-.07,0-.28-.01-.64-.01h-.69v1.1h0Z"/>
    <circle class="st3" cx="171.69" cy="53.72" r="3.82"/>
  </g>
</svg>