<?xml version="1.0" encoding="UTF-8"?>
<svg id="Layer_1" xmlns="http://www.w3.org/2000/svg" version="1.1" viewBox="0 0 284.22 185.49">
  <!-- Generator: Adobe Illustrator 30.1.0, SVG Export Plug-In . SVG Version: 2.1.1 Build 136)  -->
  <defs>
    <style>
      .st0 {
        fill: #fff;
      }

      .st0, .st1 {
        fill-rule: evenodd;
      }

      .st2, .st1 {
        fill: #231f20;
      }

      .st3 {
        fill: none;
        stroke: #fff;
        stroke-miterlimit: 2.61;
        stroke-width: .25px;
      }
    </style>
  </defs>
  <path class="st1" d="M203.61,70.77c0-1.13.1-1.17.59-1.23l.23-.04c.07-.07.06-.27-.02-.31-.47.02-.95.02-1.42.02s-.97,0-1.44-.02c-.09.05-.1.23-.02.31l.23.04c.51.06.59.1.59,1.23v3.99c0,1.13-.1,1.17-.59,1.23l-.23.04c-.07.07-.06.27.02.31.47-.02.97-.02,1.44-.02s.95,0,1.42.02c.09-.04.1-.23.02-.31l-.23-.04c-.51-.06-.59-.1-.59-1.23v-3.99ZM199.06,70.78c0-1.15.1-1.18.58-1.27l.15-.02c.07-.05.06-.27-.02-.31-.39.02-.84.04-1.32.04s-.96,0-1.52-.04c-.09.04-.1.26-.02.31l.31.04c.51.06.6.1.6,1.25v4.13c0,1.15-.07,1.92-.1,2.11-.02.22-.12.85-.37.85-.1,0-.2-.02-.46-.2-.17-.11-.33-.21-.48-.21-.31,0-.49.44-.49.64,0,.3.31.36.57.36,1.22,0,2-.72,2.33-1.57.2-.48.23-1.22.23-2.07v-4.06.02ZM188.7,73.5c0,1.09.22,1.84.7,2.31.49.47,1.2.69,2.19.69.74,0,1.53-.21,2.08-.8.55-.6.7-1.5.7-2.48v-1.28c0-.85,0-1.8.15-2.12.07-.17.27-.21.47-.26l.23-.05c.09-.07.06-.25-.02-.31-.39.02-.68.02-1.13.02-.42,0-.83,0-1.18-.02-.11.04-.12.22-.02.31l.21.04c.27.04.43.12.53.28.2.31.2,1.31.2,2.12v1.34c0,1.64-.58,2.7-1.97,2.7-1.48,0-1.92-1.25-1.92-2.74v-2.47c0-1.15.1-1.17.59-1.25l.23-.04c.07-.07.06-.26-.02-.31-.47.02-.95.02-1.43.02s-.95,0-1.38-.02c-.09.05-.1.22-.02.31l.18.04c.51.07.59.11.59,1.25v2.74l.05-.02ZM183.02,73.2c-.26,0-.28,0-.17-.31l.44-1.26c.2-.51.27-.78.32-.85h.02c.05.07.11.28.3.85l.44,1.29c.09.26.04.28-.26.28h-1.11.01ZM184.28,73.68c.3,0,.33,0,.43.28l.51,1.47c.14.47.11.53-.27.57l-.23.04c-.06.06-.05.26.04.31.37,0,.84-.02,1.29-.02.55,0,.95,0,1.38.02.07-.05.07-.23,0-.31l-.16-.04c-.54-.1-.59-.17-.84-.89l-1.53-4.51c-.17-.48-.31-.99-.48-1.48-.04-.05-.1-.09-.18-.09-.02,0-.37.44-.75.52.04.18-.06.44-.2.79l-1.45,3.83c-.22.58-.39,1.04-.52,1.31-.16.36-.27.46-.59.49l-.32.05c-.07.1-.06.26,0,.31.37-.02.7-.02,1.06-.02.43,0,.79,0,1.13.02.09-.04.1-.23.02-.31l-.31-.05c-.39-.05-.43-.09-.22-.72l.43-1.29c.1-.28.09-.28.36-.28h1.42-.01ZM176.61,72.87c.54,0,.58.02.58.31v1.58c0,1.13-.1,1.17-.59,1.23l-.23.04c-.07.07-.06.27.02.31.47-.02.95-.02,1.44-.02s.95,0,1.42.02c.09-.04.1-.23.02-.31l-.23-.04c-.51-.06-.59-.1-.59-1.23v-3.99c0-1.13.1-1.17.59-1.23l.2-.04c.07-.05.06-.27-.02-.31-.43.02-.9.02-1.38.02s-.95,0-1.44-.02c-.09.05-.1.26-.02.31l.23.04c.51.06.59.1.59,1.23v1.31c0,.3-.04.32-.58.32h-2.49c-.54,0-.58-.02-.58-.32v-1.31c0-1.13.1-1.17.59-1.23l.18-.04c.07-.05.06-.27-.02-.31-.42.02-.9.02-1.37.02s-.97,0-1.44-.02c-.09.05-.1.26-.02.31l.23.04c.51.06.59.1.59,1.23v3.99c0,1.13-.1,1.17-.59,1.25l-.15.02c-.07.07-.06.27.02.31.41-.02.89-.02,1.36-.02s.95,0,1.5.02c.09-.04.1-.23.02-.31l-.32-.04c-.51-.05-.59-.09-.59-1.22v-1.58c0-.28.04-.31.58-.31h2.49,0ZM165.91,70.07c0-.43.04-.46.57-.46.67,0,1.36.38,1.36,1.32s-.46,1.37-1.45,1.37c-.43,0-.46,0-.46-.3v-1.95h-.01ZM165.91,72.99c0-.21.02-.28.49-.28,1.18,0,1.92.65,1.92,1.76,0,.96-.65,1.44-1.38,1.44-.92,0-1.04-.39-1.04-1.38v-1.55h0ZM164.67,74.77c0,1.13-.1,1.17-.59,1.23l-.23.04c-.07.07-.06.27.02.32.47-.02.97-.04,1.44-.04.41,0,.85.04,1.32.04,1.22,0,1.92-.18,2.42-.6.49-.39.65-.94.65-1.43,0-1.22-.9-1.74-1.71-1.87-.06-.02-.09-.05-.09-.06s.02-.05.06-.06c.74-.25,1.21-.73,1.21-1.37,0-.68-.26-1.11-.74-1.39-.48-.28-1.2-.37-2.08-.37-1.17,0-1.95.05-2.43.1-.09.05-.09.22,0,.3l.27.04c.51.05.51.18.51,1.22v3.93h-.02ZM161.66,75.97c-.35-.04-.46-.12-.49-.84-.07-1.59-.1-3.18-.1-4.77,0-.57.11-.75.58-.81l.36-.05c.11-.06.09-.27-.04-.31-.3.02-.67.04-1.12.04-.23,0-.59,0-.88-.04-.18.72-.52,1.34-.86,2.06l-1,2.07c-.23.51-.38.8-.55,1.12-.14-.25-.42-.79-.51-.96l-1.17-2.49c-.27-.58-.54-1.13-.59-1.79-.39.04-.76.04-1.15.04s-.68,0-1-.04c-.1.04-.11.23-.04.31l.36.06c.42.06.58.3.58.79,0,.65-.06,1.55-.11,2.28-.05,1.12-.07,1.81-.16,2.49-.06.65-.15.81-.67.89l-.18.02c-.06.05-.06.26.04.31.42-.02.8-.02,1.13-.02.39,0,.73,0,1.12.02.09-.04.09-.25,0-.31l-.36-.06c-.46-.07-.47-.25-.47-.96,0-.89.02-1.84.04-2.49.02-.46.04-1.29.06-1.82h.02c.12.32.42,1,.62,1.45l.95,2.06c.25.54.7,1.59.89,2.18.07.04.23.04.27,0,.2-.51.73-1.7,1.09-2.45l.91-1.9c.2-.43.36-.75.64-1.34h.02v4.4c0,.73-.04.81-.46.89l-.28.05c-.11.06-.06.27.02.31.47-.02.92-.02,1.43-.02.43,0,.84,0,1.29.02.12-.04.12-.27.02-.31l-.31-.05.04-.02ZM147.4,73.2c-.26,0-.28,0-.17-.31l.44-1.26c.2-.51.27-.78.32-.85h.02c.05.07.11.28.3.85l.44,1.29c.09.26.04.28-.26.28h-1.11.01ZM148.64,73.68c.3,0,.33,0,.43.28l.51,1.47c.14.47.11.53-.27.57l-.23.04c-.06.06-.05.26.04.31.37,0,.84-.02,1.29-.02.55,0,.95,0,1.38.02.07-.05.07-.23,0-.31l-.16-.04c-.54-.1-.59-.17-.84-.89l-1.53-4.51c-.17-.48-.31-.99-.48-1.48-.04-.05-.1-.09-.18-.09-.02,0-.37.44-.75.52.04.18-.06.44-.2.79l-1.45,3.83c-.22.58-.39,1.04-.52,1.31-.16.36-.27.46-.59.49l-.32.05c-.07.1-.06.26,0,.31.37-.02.7-.02,1.06-.02.43,0,.79,0,1.13.02.09-.04.1-.23.02-.31l-.31-.05c-.39-.05-.43-.09-.22-.72l.43-1.29c.1-.28.09-.28.36-.28h1.42-.01ZM139.57,70.14c0-.49,0-.53.57-.53.92,0,1.47.74,1.47,1.59,0,1.02-.48,1.54-1.53,1.54-.51,0-.51-.02-.51-.37v-2.24h0ZM138.34,74.77c0,1.13-.1,1.17-.59,1.23l-.23.04c-.1.07-.06.27.02.31.49-.02.97-.02,1.44-.02s.95,0,1.42.02c.09-.04.1-.23.02-.31l-.23-.04c-.51-.06-.59-.1-.59-1.23v-1.38c0-.22,0-.23.33-.23.36,0,.47.04.67.37.26.42.55,1.01.84,1.47.65,1,1.21,1.42,2.23,1.42.37,0,.58-.04.7-.06.04-.05.04-.17-.02-.21-.12,0-.43-.07-.74-.33-.51-.42-1.04-1.33-1.89-2.79-.04-.06-.06-.15,0-.18.52-.21,1.28-.72,1.28-1.7,0-.78-.39-1.28-.94-1.57-.47-.26-1.2-.37-2.02-.37-.88,0-1.78.04-2.45.1-.09.05-.09.22,0,.3l.27.04c.51.05.51.18.51,1.22v3.93h-.02ZM133.08,70.77c0-1.13.1-1.17.59-1.23l.23-.04c.07-.07.06-.27-.02-.31-.47.02-.95.02-1.42.02s-.97,0-1.44-.02c-.09.05-.1.23-.02.31l.23.04c.51.06.59.1.59,1.23v3.99c0,1.13-.1,1.17-.59,1.23l-.23.04c-.07.07-.06.27.02.31.47-.02.97-.02,1.44-.02s.95,0,1.42.02c.09-.04.1-.23.02-.31l-.23-.04c-.51-.06-.59-.1-.59-1.23v-3.99ZM128.53,70.78c0-1.15.1-1.18.58-1.27l.15-.02c.07-.05.06-.27-.02-.31-.39.02-.84.04-1.32.04s-.96,0-1.52-.04c-.09.04-.1.26-.02.31l.31.04c.52.06.6.1.6,1.25v4.13c0,1.15-.07,1.92-.1,2.11-.02.22-.12.85-.37.85-.1,0-.2-.02-.46-.2-.17-.11-.33-.21-.48-.21-.31,0-.49.44-.49.64,0,.3.31.36.57.36,1.22,0,2-.72,2.33-1.57.2-.48.23-1.22.23-2.07v-4.06.02ZM120.61,73.2c-.26,0-.28,0-.17-.31l.44-1.26c.2-.51.27-.78.32-.85h.02c.05.07.12.28.3.85l.44,1.29c.09.26.04.28-.26.28h-1.11.01ZM121.85,73.68c.3,0,.33,0,.43.28l.51,1.47c.14.47.11.53-.27.57l-.23.04c-.06.06-.05.26.04.31.37,0,.84-.02,1.29-.02.55,0,.95,0,1.38.02.07-.05.07-.23,0-.31l-.16-.04c-.54-.1-.59-.17-.84-.89l-1.53-4.51c-.17-.48-.31-.99-.48-1.48-.04-.05-.1-.09-.18-.09-.02,0-.37.44-.75.52.04.18-.06.44-.2.79l-1.45,3.83c-.22.58-.39,1.04-.52,1.31-.16.36-.27.46-.59.49l-.32.05c-.07.1-.06.26,0,.31.37-.02.7-.02,1.06-.02.43,0,.79,0,1.13.02.09-.04.1-.23.02-.31l-.31-.05c-.39-.05-.43-.09-.22-.72l.43-1.29c.1-.28.09-.28.36-.28h1.42-.01ZM113.87,74.77c0,1.15-.1,1.17-.59,1.23l-.35.04c-.07.07-.06.27.02.31.58-.02,1.06-.04,1.54-.04s.95,0,1.6.04c.09-.04.1-.23.02-.31l-.41-.04c-.52-.05-.62-.09-.62-1.23v-.64c0-.73.07-.96.39-1.52.33-.6.65-1.2,1.01-1.81.55-.95.68-1.15,1.16-1.23l.31-.06c.07-.09.07-.26-.02-.31-.35.02-.68.04-1.01.04s-.65,0-1.12-.04c-.11.05-.11.23-.04.31l.32.07c.15.02.25.05.25.16,0,.12-.11.36-.28.72-.42.8-.81,1.57-1.25,2.38-.43-.79-.81-1.65-1.23-2.58-.15-.36-.2-.47-.2-.55s.05-.12.22-.14l.32-.05c.09-.07.06-.27-.02-.31-.25.02-.9.04-1.37.04-.43,0-.89,0-1.34-.04-.09.04-.11.23-.04.31l.27.06c.48.1.57.22.8.69l1.28,2.55c.3.57.35.73.35,1.33v.63h.01ZM106.5,74.77c0,1.15-.1,1.17-.59,1.23l-.35.04c-.07.07-.06.27.02.31.58-.02,1.06-.04,1.54-.04s.95,0,1.6.04c.09-.04.1-.23.02-.31l-.41-.04c-.52-.05-.62-.09-.62-1.23v-.64c0-.73.07-.96.39-1.52.33-.6.65-1.2,1.01-1.81.55-.95.68-1.15,1.16-1.23l.31-.06c.07-.09.07-.26-.02-.31-.35.02-.68.04-1.01.04s-.65,0-1.12-.04c-.11.05-.11.23-.04.31l.32.07c.15.02.25.05.25.16,0,.12-.11.36-.28.72-.42.8-.81,1.57-1.25,2.38-.43-.79-.81-1.65-1.23-2.58-.15-.36-.2-.47-.2-.55s.05-.12.22-.14l.32-.05c.09-.07.06-.27-.02-.31-.25.02-.9.04-1.37.04-.43,0-.89,0-1.34-.04-.09.04-.11.23-.04.31l.27.06c.48.1.57.22.8.69l1.28,2.55c.3.57.35.73.35,1.33v.63h.01ZM99.35,73.2c-.26,0-.28,0-.17-.31l.44-1.26c.2-.51.27-.78.32-.85h.02c.05.07.11.28.3.85l.44,1.29c.09.26.04.28-.26.28h-1.11.01ZM100.59,73.68c.3,0,.33,0,.43.28l.51,1.47c.14.47.11.53-.27.57l-.23.04c-.06.06-.05.26.04.31.37,0,.84-.02,1.29-.02.55,0,.95,0,1.38.02.07-.05.07-.23,0-.31l-.16-.04c-.54-.1-.59-.17-.84-.89l-1.53-4.51c-.17-.48-.31-.99-.48-1.48-.04-.05-.1-.09-.18-.09-.02,0-.37.44-.74.52.04.18-.06.44-.2.79l-1.45,3.83c-.22.58-.39,1.04-.52,1.31-.16.36-.27.46-.59.49l-.32.05c-.07.1-.06.26,0,.31.37-.02.7-.02,1.06-.02.43,0,.79,0,1.13.02.09-.04.1-.23.02-.31l-.31-.05c-.39-.05-.43-.09-.22-.72l.43-1.29c.1-.28.09-.28.36-.28h1.42-.02ZM92.94,72.87c.54,0,.58.02.58.31v1.58c0,1.13-.1,1.17-.59,1.23l-.23.04c-.07.07-.06.27.02.31.47-.02.95-.02,1.44-.02s.95,0,1.42.02c.09-.04.1-.23.02-.31l-.23-.04c-.51-.06-.59-.1-.59-1.23v-3.99c0-1.13.1-1.17.59-1.23l.2-.04c.07-.05.06-.27-.02-.31-.43.02-.9.02-1.37.02s-.95,0-1.44-.02c-.09.05-.1.26-.02.31l.23.04c.51.06.59.1.59,1.23v1.31c0,.3-.04.32-.58.32h-2.49c-.54,0-.58-.02-.58-.32v-1.31c0-1.13.1-1.17.59-1.23l.18-.04c.07-.05.06-.27-.02-.31-.42.02-.9.02-1.37.02s-.97,0-1.44-.02c-.09.05-.1.26-.02.31l.23.04c.51.06.59.1.59,1.23v3.99c0,1.13-.1,1.17-.59,1.25l-.15.02c-.07.07-.06.27.02.31.41-.02.89-.02,1.36-.02s.95,0,1.5.02c.09-.04.1-.23.02-.31l-.32-.04c-.51-.05-.59-.09-.59-1.22v-1.58c0-.28.04-.31.58-.31h2.49-.01ZM82.24,70.07c0-.43.04-.46.57-.46.67,0,1.36.38,1.36,1.32s-.46,1.37-1.45,1.37c-.43,0-.46,0-.46-.3v-1.95h-.01ZM82.24,72.99c0-.21.02-.28.49-.28,1.18,0,1.92.65,1.92,1.76,0,.96-.65,1.44-1.38,1.44-.92,0-1.04-.39-1.04-1.38v-1.55h0ZM81,74.77c0,1.13-.1,1.17-.59,1.23l-.23.04c-.07.07-.06.27.02.32.47-.02.97-.04,1.44-.04.41,0,.85.04,1.32.04,1.22,0,1.92-.18,2.42-.6.49-.39.65-.94.65-1.43,0-1.22-.9-1.74-1.71-1.87-.06-.02-.09-.05-.09-.06s.02-.05.06-.06c.74-.25,1.21-.73,1.21-1.37,0-.68-.26-1.11-.74-1.39-.48-.28-1.2-.37-2.08-.37-1.17,0-1.95.05-2.43.1-.09.05-.09.22,0,.3l.27.04c.51.05.52.18.52,1.22v3.93h-.04Z"/>
  <path class="st1" d="M183.77,82.92v6.72h.36c1.13,0,1.96-.33,2.48-.99.51-.65.84-1.63.97-2.9h.52v8.63h-.52c-.1-.94-.33-1.71-.67-2.31-.35-.6-.73-1-1.18-1.21-.44-.21-1.1-.31-1.96-.31v4.64c0,.91.04,1.45.12,1.66.09.2.23.37.47.49s.59.2,1.11.2h1.07c1.66,0,3.01-.36,4.02-1.06,1.01-.72,1.73-1.79,2.17-3.26h.49l-.8,5.24h-15.42v-.42h.59c.52,0,.94-.09,1.25-.26.23-.11.41-.31.53-.59.1-.2.15-.72.15-1.54v-10.87c0-.75-.02-1.21-.06-1.38-.09-.28-.25-.51-.48-.65-.33-.23-.79-.35-1.37-.35h-.59v-.42h14.94v4.87h-.52c-.25-1.2-.62-2.05-1.07-2.56s-1.11-.9-1.95-1.15c-.49-.15-1.41-.22-2.75-.22h-1.9ZM163.09,82.89v12.87c0,.68.04,1.1.11,1.26.06.15.18.27.36.36.23.12.58.18,1.04.18,1.47,0,2.59-.46,3.37-1.38,1.06-1.25,1.59-3.19,1.59-5.82,0-2.12-.36-3.81-1.09-5.07-.57-.99-1.31-1.66-2.21-2.02-.63-.26-1.69-.37-3.16-.37h-.01ZM156.3,98.46v-.42h.59c.52,0,.91-.07,1.2-.23.27-.15.48-.36.62-.62.07-.17.11-.68.11-1.54v-10.87c0-.85-.05-1.38-.15-1.59s-.3-.39-.58-.55c-.3-.16-.69-.25-1.2-.25h-.59v-.42h7.99c2.13,0,3.85.27,5.15.8,1.59.65,2.79,1.65,3.61,2.97.83,1.33,1.23,2.84,1.23,4.51,0,1.16-.2,2.23-.6,3.21s-.92,1.79-1.57,2.42-1.38,1.15-2.22,1.53c-.84.38-1.86.68-3.07.9-.53.1-1.38.15-2.53.15h-8ZM145.19,88.3l6.26,7.26c.89,1.02,1.65,1.73,2.29,2.1.47.26.96.39,1.48.39v.42h-9.28v-.42c.59-.05.96-.14,1.13-.26s.26-.27.26-.46c0-.35-.39-.99-1.21-1.94l-4.09-4.75-.67.49v4.51c0,.86.05,1.41.16,1.62.11.21.31.39.62.54.3.15.78.23,1.44.23v.42h-9.01v-.42h.59c.52,0,.94-.09,1.25-.26.23-.11.41-.31.53-.59.1-.2.15-.72.15-1.54v-10.87c0-.85-.05-1.38-.15-1.59s-.3-.39-.58-.55c-.3-.16-.69-.25-1.2-.25h-.59v-.42h8.88v.42c-.6,0-1.06.09-1.38.25-.23.11-.41.31-.54.58-.1.21-.16.73-.16,1.57v5.14l6.65-4.93c.92-.7,1.38-1.27,1.38-1.69,0-.32-.18-.55-.57-.74-.2-.09-.67-.15-1.43-.17v-.42h6.95v.42c-.63.04-1.11.15-1.47.32-.36.16-1.17.74-2.45,1.71l-5.23,3.88h-.01ZM122.53,82.55c-1.64,0-2.89.76-3.75,2.31-.7,1.26-1.05,3.07-1.05,5.44,0,2.81.54,4.88,1.62,6.23.75.94,1.8,1.41,3.14,1.41.91,0,1.66-.2,2.27-.6.78-.52,1.38-1.34,1.81-2.48.43-1.13.65-2.63.65-4.45,0-2.18-.22-3.81-.67-4.88-.44-1.09-1-1.85-1.69-2.29-.68-.44-1.47-.67-2.36-.67h.01ZM122.37,81.77c2.85-.1,5.15.67,6.94,2.29,1.78,1.63,2.68,3.66,2.68,6.1,0,2.08-.67,3.92-2,5.51-1.76,2.1-4.24,3.16-7.45,3.16s-5.71-1-7.46-3.01c-1.39-1.59-2.08-3.46-2.08-5.65,0-2.44.9-4.49,2.71-6.12,1.81-1.63,4.03-2.39,6.67-2.31h-.01ZM98.66,82.89v7.19h.75c1.22,0,2.15-.1,2.75-.31.6-.21,1.09-.58,1.43-1.11.35-.53.52-1.23.52-2.1,0-1.26-.32-2.18-.96-2.77s-1.66-.9-3.08-.9h-1.41ZM98.66,90.95v4.65c0,.89.06,1.45.18,1.68.11.23.33.42.63.55.3.14.86.21,1.68.21v.42h-9.14v-.42c.83,0,1.39-.07,1.68-.21.3-.14.51-.33.62-.55.12-.23.18-.79.18-1.68v-10.78c0-.89-.06-1.45-.18-1.68-.12-.23-.33-.42-.63-.55-.3-.14-.86-.21-1.68-.21v-.42h8.31c2.16,0,3.74.14,4.75.42,1,.27,1.82.79,2.45,1.53.63.74.95,1.62.95,2.61,0,1.22-.48,2.22-1.43,3.02-.6.51-1.45.89-2.55,1.13l4.28,5.59c.57.72.97,1.17,1.21,1.34.36.25.78.38,1.26.41v.44h-5.62l-5.77-7.51s-1.17,0-1.17,0Z"/>
  <rect class="st2" x="92.33" y="101.82" width="100.04" height="9.43"/>
  <path class="st0" d="M180.74,107.45l1.04-.1c.06.35.18.6.38.76.18.16.44.25.76.25.35,0,.59-.07.76-.22s.26-.31.26-.51c0-.12-.04-.23-.11-.32s-.2-.16-.38-.22c-.12-.05-.41-.12-.85-.23-.57-.15-.96-.32-1.2-.52-.32-.3-.48-.64-.48-1.06,0-.27.07-.52.22-.75s.37-.41.65-.53.63-.18,1.04-.18c.65,0,1.16.15,1.48.44.33.3.51.68.52,1.17l-1.06.04c-.05-.27-.15-.47-.3-.58-.15-.12-.37-.18-.67-.18s-.54.06-.72.2c-.11.09-.17.18-.17.33,0,.12.05.23.16.32.14.11.46.23.97.36s.9.25,1.15.38.44.31.58.53.21.51.21.84c0,.3-.09.58-.25.85-.17.26-.41.46-.72.59-.31.12-.69.2-1.15.2-.67,0-1.17-.15-1.53-.46-.36-.31-.57-.75-.64-1.34l.02-.05ZM171.68,106.12h.79c.51,0,.83-.02.95-.06.12-.04.22-.12.3-.22.07-.11.11-.23.11-.39,0-.17-.05-.32-.15-.43s-.22-.17-.39-.21c-.09-.01-.35-.01-.78-.01h-.83v1.33ZM170.62,109.15v-5.25h2.23c.57,0,.97.05,1.22.15.26.1.46.26.62.51.15.25.23.52.23.83,0,.39-.11.72-.35.97s-.58.42-1.04.48c.23.14.42.28.57.44.15.16.35.44.6.85l.64,1.02h-1.27l-.76-1.15c-.27-.41-.46-.67-.57-.78-.1-.11-.21-.17-.32-.22-.11-.04-.3-.06-.54-.06h-.21v2.19h-1.06ZM160.62,109.15v-5.25h3.9v.89h-2.82v1.17h2.63v.89h-2.63v1.43h2.93v.89h-4.01ZM151.05,109.15v-5.22h1.06v4.33h2.64v.89h-3.7ZM141.47,109.15v-5.22h1.06v4.33h2.64v.89h-3.7ZM131.43,109.15v-5.25h3.9v.89h-2.82v1.17h2.63v.89h-2.63v1.43h2.93v.89h-4.01ZM120.12,109.15l-1.23-5.25h1.1l.78,3.61.96-3.61h1.27l.91,3.67.8-3.67h1.07l-1.27,5.25h-1.13l-1.04-3.93-1.05,3.93h-1.17ZM109.4,109.15v-5.25h3.9v.89h-2.82v1.17h2.63v.89h-2.63v1.43h2.93v.89h-4.01ZM102.1,103.9h1.06v3.33c0,.43-.04.78-.11,1.01-.1.31-.28.55-.55.74-.27.18-.63.28-1.07.28-.52,0-.91-.15-1.2-.43-.28-.3-.42-.72-.42-1.28l1.01-.12c0,.3.05.52.14.64.11.18.28.28.52.28s.39-.06.49-.2.15-.42.15-.84v-3.4h-.01Z"/>
  <path class="st3" d="M180.74,107.45l1.04-.1c.06.35.18.6.38.76.18.16.44.25.76.25.35,0,.59-.07.76-.22s.26-.31.26-.51c0-.12-.04-.23-.11-.32s-.2-.16-.38-.22c-.12-.05-.41-.12-.85-.23-.57-.15-.96-.32-1.2-.52-.32-.3-.48-.64-.48-1.06,0-.27.07-.52.22-.75s.37-.41.65-.53.63-.18,1.04-.18c.65,0,1.16.15,1.48.44.33.3.51.68.52,1.17l-1.06.04c-.05-.27-.15-.47-.3-.58-.15-.12-.37-.18-.67-.18s-.54.06-.72.2c-.11.09-.17.18-.17.33,0,.12.05.23.16.32.14.11.46.23.97.36s.9.25,1.15.38.44.31.58.53.21.51.21.84c0,.3-.09.58-.25.85-.17.26-.41.46-.72.59-.31.12-.69.2-1.15.2-.67,0-1.17-.15-1.53-.46-.36-.31-.57-.75-.64-1.34l.02-.05ZM171.68,106.12h.79c.51,0,.83-.02.95-.06.12-.04.22-.12.3-.22.07-.11.11-.23.11-.39,0-.17-.05-.32-.15-.43s-.22-.17-.39-.21c-.09-.01-.35-.01-.78-.01h-.83v1.33ZM170.62,109.15v-5.25h2.23c.57,0,.97.05,1.22.15.26.1.46.26.62.51.15.25.23.52.23.83,0,.39-.11.72-.35.97s-.58.42-1.04.48c.23.14.42.28.57.44.15.16.35.44.6.85l.64,1.02h-1.27l-.76-1.15c-.27-.41-.46-.67-.57-.78-.1-.11-.21-.17-.32-.22-.11-.04-.3-.06-.54-.06h-.21v2.19h-1.06ZM160.62,109.15v-5.25h3.9v.89h-2.82v1.17h2.63v.89h-2.63v1.43h2.93v.89h-4.01ZM151.05,109.15v-5.22h1.06v4.33h2.64v.89h-3.7ZM141.47,109.15v-5.22h1.06v4.33h2.64v.89h-3.7ZM131.43,109.15v-5.25h3.9v.89h-2.82v1.17h2.63v.89h-2.63v1.43h2.93v.89h-4.01ZM120.12,109.15l-1.23-5.25h1.1l.78,3.61.96-3.61h1.27l.91,3.67.8-3.67h1.07l-1.27,5.25h-1.13l-1.04-3.93-1.05,3.93h-1.17ZM109.4,109.15v-5.25h3.9v.89h-2.82v1.17h2.63v.89h-2.63v1.43h2.93v.89h-4.01ZM102.1,103.9h1.06v3.33c0,.43-.04.78-.11,1.01-.1.31-.28.55-.55.74-.27.18-.63.28-1.07.28-.52,0-.91-.15-1.2-.43-.28-.3-.42-.72-.42-1.28l1.01-.12c0,.3.05.52.14.64.11.18.28.28.52.28s.39-.06.49-.2.15-.42.15-.84v-3.4h-.01Z"/>
  <path class="st1" d="M80.14,110.42c.79,1.52,2.98-.78,1.31-2.28-.53-.48-1.22-.68-1.94-.72-.46-.02-.92.05-1.38.25-.62.27-.38.25-.89-.16-.74-.6-1.42-.38-.81.69.3.52.28.38-.06.89-1.2,1.75-.99,3.42-.04,4.73,2.1,2.92,6.02,3.39,8.87,1.38.44-.32.64-.53,1.17-.38.96.27,2.15.42.92-.92-.38-.43-.36-.28,0-.74,2.06-2.64,3.13-7.24.14-9.67-.28-.23-.26-.14-.05-.41.72-.89.28-1.97-.91-1.13-.23.16-.22.22-.46.02-.17-.14-.31-.32-.42-.55-.21-.41-.07-.31.27-.49,1.52-.83,1.11-2.7-.88-.99-.28.25-.28.33-.31-.1-.07-1.07.27-1.71,1.25-2.12.59-.23,1.2-.12,1.79.33.36.28.39.53.68.02.35-.62.04-1.2-.74-1.38-2.19-.53-5.19,1.2-3.81,3.21.35.51.6.44-.11.51-1.41.12-2.24.63-2.85,1.55-.22.33-.36.42.07.28,2.9-.9,6.3,1.53,7.04,4.4.21.8.14.68-.41.2-1.5-1.34-2.74-2.59-4.69-2.6-.8,0-1.64.1-2.15.8-.75,1.02.9,2.02,1.62,1.57.53-.33.09-.75.85-1.01,1.12-.38,2.22.23,3.28,1.39.49.53.32.33-.23.51-.65.2-.91.69.02,2.13.69,1.06.85,1.89.23,3.01-.17.32-.16.25-.44.05-.8-.57-1.42-.85-1.31-.05.05.33.11.43,0,.75-.85,2.24-3.9,2.34-5.09,1.28-.32-.28-.28-.42-.32-.81-.07-.79-.44-.96-1.09-.55-.46.3-.37.36-.7-.14-1.69-2.55,1.11-5.38,2.27-4.09.48.53.04.85.3,1.34"/>
  <path class="st1" d="M204.09,110.42c-.79,1.52-2.98-.78-1.31-2.28.53-.48,1.22-.68,1.94-.72.46-.02.92.05,1.38.25.62.27.38.25.89-.16.74-.6,1.42-.38.81.69-.3.52-.28.38.06.89,1.2,1.75.99,3.42.04,4.73-2.1,2.92-6.02,3.39-8.87,1.38-.44-.32-.64-.53-1.17-.38-.96.27-2.15.42-.92-.92.38-.43.36-.28,0-.74-2.06-2.64-3.13-7.24-.14-9.67.28-.23.26-.14.05-.41-.72-.89-.28-1.97.91-1.13.23.16.22.22.46.02.17-.14.31-.32.42-.55.21-.41.07-.31-.27-.49-1.52-.83-1.11-2.7.88-.99.28.25.28.33.31-.1.07-1.07-.27-1.71-1.25-2.12-.59-.23-1.2-.12-1.79.33-.36.28-.39.53-.68.02-.35-.62-.04-1.2.74-1.38,2.19-.53,5.19,1.2,3.81,3.21-.35.51-.6.44.11.51,1.41.12,2.24.63,2.85,1.55.22.33.36.42-.07.28-2.9-.9-6.3,1.53-7.04,4.4-.21.8-.14.68.41.2,1.5-1.34,2.74-2.59,4.69-2.6.8,0,1.64.1,2.15.8.75,1.02-.9,2.02-1.62,1.57-.53-.33-.09-.75-.85-1.01-1.12-.38-2.22.23-3.28,1.39-.49.53-.32.33.23.51.65.2.91.69-.02,2.13-.69,1.06-.85,1.89-.23,3.01.17.32.16.25.44.05.8-.57,1.42-.85,1.31-.05-.05.33-.11.43,0,.75.85,2.24,3.9,2.34,5.09,1.28.32-.28.28-.42.32-.81.07-.79.44-.96,1.09-.55.46.3.37.36.7-.14,1.69-2.55-1.11-5.38-2.27-4.09-.48.53-.04.85-.3,1.34"/>
</svg>