<?xml version="1.0" encoding="UTF-8"?>
<svg id="Layer_1" xmlns="http://www.w3.org/2000/svg" version="1.1" viewBox="0 0 284.22 185.49">
  <!-- Generator: Adobe Illustrator 30.1.0, SVG Export Plug-In . SVG Version: 2.1.1 Build 136)  -->
  <defs>
    <style>
      .st0, .st1 {
        fill: #231f20;
      }

      .st1 {
        fill-rule: evenodd;
      }

      .st2 {
        fill: none;
        stroke: #231f20;
        stroke-miterlimit: 2.61;
        stroke-width: .92px;
      }
    </style>
  </defs>
  <g>
    <path class="st1" d="M133.66,86.47c-.14.04-.04.14-.18.18-5.45,1.25-10.89-1.79-12.26-6.92-1.13-4.22.81-8.57,4.52-10.91-2.28,2.2-3.26,6.01-2.22,9.85,1.4,5.22,6,8.55,10.26,7.41.18,0-.05.16-.05.3,0,.09.07.08-.04.12"/>
    <path class="st1" d="M133.25,87.07c-3.42,2.96-8.44,2.96-11.49-.11-2.58-2.58-2.98-6.54-1.29-9.75-.73,2.54.15,5.7,2.5,8.03,3.19,3.19,7.88,3.66,10.49,1.07.18-.12.57-.46.64-.39.03.03.09.01.07.11-.03.07-.08.16-.14.26-.19.3-.5.56-.77.79"/>
    <path class="st1" d="M140.25,86.47c.14.04.04.14.18.18,5.45,1.25,10.89-1.79,12.26-6.92,1.13-4.22-.81-8.57-4.52-10.91,2.28,2.2,3.26,6.01,2.22,9.85-1.4,5.22-6,8.55-10.26,7.41-.18,0,.05.16.05.3,0,.09-.07.08.04.12"/>
    <path class="st1" d="M140.66,87.07c3.42,2.96,8.44,2.96,11.49-.11,2.58-2.58,2.98-6.54,1.29-9.75.73,2.54-.15,5.7-2.5,8.03-3.19,3.19-7.88,3.66-10.49,1.07-.18-.12-.57-.46-.64-.39-.03.03-.09.01-.07.11.03.07.08.16.14.26.19.3.5.56.77.79"/>
    <path class="st1" d="M140.62,65.18c4.64,1.44,7.99,5.56,7.99,10.42,0,6.05-5.21,10.96-11.64,10.96s-11.64-4.91-11.64-10.96c0-4.86,3.35-8.97,7.99-10.42-3.08,1.71-5.22,5.51-5.22,9.93,0,6.01,3.97,10.89,8.87,10.89s8.87-4.87,8.87-10.89c0-4.42-2.14-8.22-5.22-9.93"/>
    <path class="st0" d="M137.78,69.69c.71-.79.71-1.51.42-2.02-.61-1.1-1.95-1.04-2.71-.12-.26.31-.42.71-.42,1.11,0,.96.92,1.83,1.6,2.44,2.25,1.83,9.18,6.33,6.4,9.82,1.09-4.25-5.47-7.07-8.41-10.09-.9-.92-1.32-1.55-1.37-2.93-.07-1.9,1.59-3.54,3.28-3.69,2.08-.18,3.39,1.22,3.81,2.62.42,1.42-.03,3.99-2.62,2.84"/>
  </g>
  <g>
    <path class="st1" d="M201.66,103.74v-6.86c-.01-.3-.04-.79-.24-1.02-.19-.22-.58-.26-.85-.26h-.35v-.92h.19c.71.01,1.41.04,2.13.04h.84c.43,0,.85-.01,1.29-.03h.07v.92h-.34c-.27,0-.62.04-.83.26s-.24.62-.24.91v8.94h-2.56l-4.5-9.06v6.85c.01.3.04.79.26,1.02.2.23.57.26.85.26h.37v.92h-.07c-.3-.01-.58-.03-.88-.03h-2.74c-.27,0-.53,0-.8.03h-.07v-.92h.35c.28,0,.66-.04.87-.27.2-.24.23-.72.23-1.02v-6.67c0-.3-.03-.73-.23-.96-.2-.22-.56-.26-.83-.26h-.34v-.92h.38c.62.01,1.26.04,1.89.04h.79c.3,0,.6-.01.88-.03h.04l4.48,9.06h-.01Z"/>
    <path class="st1" d="M102.35,104.79c-.33,0-.65-.08-.87-.34-.28-.31-.47-.96-.57-1.37-.03-.15-.07-.3-.11-.43-.22-.9-.65-2.13-1.6-2.46.5-.18.94-.45,1.26-.87.38-.49.54-1.06.54-1.67,0-.91-.28-1.72-1.06-2.25-.88-.6-2.27-.71-3.31-.71h-4.64v.92h.35c.28,0,.66.04.87.27.22.24.24.71.24,1v6.62c0,.3-.03.79-.23,1.02s-.58.26-.87.26h-.35v.92h.07c.31-.01.62-.03.94-.03h3.01c.31,0,.62.01.94.03h.07v-.92h-.37c-.28,0-.65-.04-.85-.26-.2-.23-.23-.72-.23-1.02v-2.73h.92c.42,0,1,.04,1.37.28.38.24.62.85.76,1.26.04.11.07.26.09.37.07.3.14.6.2.88.15.71.35,1.41.6,2.09v.04h3.07v-.92h-.26.01ZM98.38,99.25c-.53.38-1.37.45-1.99.45h-.81v-3.81h1.07c.58,0,1.33.08,1.79.47.43.37.56.95.56,1.51s-.15,1.07-.61,1.4h0Z"/>
    <path class="st1" d="M90.77,104.79c-.28-.03-.58-.09-.8-.28-.27-.23-.5-.79-.62-1.11l-3.42-8.71h-2.41l-3.46,8.71c-.14.34-.35.84-.64,1.1-.22.2-.47.28-.77.3h-.07v.92h.07c.43-.01.88-.03,1.32-.03h1.67c.46,0,.92.01,1.38.03h.07v-.92h-.07c-.27,0-.73-.01-.98-.15-.19-.09-.24-.26-.24-.46,0-.07,0-.14.03-.19.03-.11.07-.22.09-.33l.61-1.75h4.12l.53,1.52c.05.15.09.31.14.46.03.11.04.23.04.34,0,.19-.07.33-.24.41-.24.12-.73.14-1,.15h-.07v.92h.07c.28-.01.57-.03.84-.03h2.88c.31,0,.62.01.94.03h.07v-.92h-.07.01ZM82.94,100.69l1.64-4.52,1.6,4.52h-3.24Z"/>
    <path class="st1" d="M192.1,104.79c-.28-.03-.58-.09-.8-.28-.27-.23-.5-.79-.62-1.11l-3.42-8.71h-2.41l-3.46,8.71c-.14.34-.35.84-.64,1.1-.22.2-.49.28-.77.3h-.07v.92h.07c.43-.01.88-.03,1.32-.03h1.67c.46,0,.92.01,1.38.03h.07v-.92h-.07c-.27,0-.73-.01-.98-.15-.19-.09-.24-.26-.24-.46,0-.07,0-.14.03-.19.03-.11.07-.22.09-.33l.61-1.75h4.12l.53,1.52c.05.15.09.31.14.46.03.11.04.23.04.34,0,.19-.07.33-.24.41-.24.12-.73.14-1,.15h-.07v.92h.08c.28-.01.57-.03.84-.03h2.88c.31,0,.62.01.94.03h.07v-.92h-.07,0ZM184.27,100.69l1.64-4.52,1.59,4.52h-3.23Z"/>
    <path class="st1" d="M174.39,95.91v7.6c0,.3.03.79.23,1.02s.57.26.85.26h.47v.92h-.07c-.33-.01-.65-.03-.98-.03h-3.13c-.33,0-.65.01-.98.03h-.07v-.92h.46c.28,0,.66-.04.87-.27.2-.24.23-.72.23-1.02v-7.6h-1.36c-.34,0-.9.03-1.15.3-.26.26-.28.79-.28,1.13v.54h-1.09v-3.2h.07c.57,0,1.13,0,1.7.01.53,0,1.04.01,1.57.01h3.15c.5,0,1.02,0,1.52-.01.57,0,1.14-.01,1.72-.01h.07v3.2h-1.13v-.35c0-.35-.03-1.03-.27-1.32-.24-.27-.88-.3-1.22-.3h-1.19Z"/>
    <path class="st1" d="M161.29,95.96v3.54h.76c.3,0,1.11,0,1.34-.24.22-.23.24-.84.24-1.14v-.07h.96v4.02h-.94v-.07c0-.31-.04-.9-.27-1.13-.24-.24-.98-.26-1.3-.26h-.8v3.91h2.43c.39,0,1.29-.03,1.57-.35.28-.34.33-1.32.33-1.74v-.07h1.03v3.4h-9.01v-.92h.43c.27,0,.65-.04.85-.26.2-.23.23-.73.23-1.03v-6.62c0-.3-.03-.79-.23-1.02-.19-.22-.58-.26-.85-.26h-.37v-.87h8.86v2.98h-1.04v-.35c0-.33-.03-.91-.28-1.15-.26-.26-1.13-.27-1.47-.27h-2.5v-.04Z"/>
    <path class="st1" d="M149.03,99.74l3.13-3.07c.12-.12.26-.27.35-.42.05-.08.09-.18.09-.28,0-.12-.11-.19-.2-.24-.2-.09-.47-.12-.69-.12h-.07v-.91h.07c.47,0,.95.01,1.42.03h1.72c.46,0,.92-.01,1.38-.03h.07v.92h-.07c-.34,0-.65.08-.96.23-.34.15-.64.37-.9.62l-3.55,3.43,4.04,3.92h0s.01.03.03.04c.31.31,1.02.95,1.49.95h.18v.92h-.07c-.28-.01-.58-.03-.87-.03h-2.92c-.31,0-.62.01-.94.03h-.07v-.92h.16c.19,0,.42-.01.58-.11.11-.05.18-.14.18-.26,0-.11-.03-.2-.08-.3-.07-.14-.22-.28-.33-.39l-3.2-3.23v3c0,.3.03.79.23,1.02s.57.26.85.26h.37v.92h-.07c-.31-.01-.61-.03-.92-.03h-3.02c-.31,0-.62.01-.94.03h-.07v-.92h.37c.28,0,.65-.04.85-.26.2-.23.23-.72.23-1.02v-6.62c0-.3-.03-.77-.23-1s-.57-.26-.85-.26h-.37v-.92h.07c.5,0,1,.01,1.51.03h1.86c.5,0,1-.01,1.51-.03h.07v.92h-.37c-.27,0-.65.04-.85.26-.2.23-.23.72-.23,1.02v2.85-.03Z"/>
    <path class="st1" d="M138.7,94.69h.05c.79.01,1.59.04,2.37.04h.92c.5,0,1-.01,1.51-.03h.07v.92h-.35c-.27,0-.66.04-.85.26-.2.23-.23.72-.23,1.02v6.62c0,.3.03.79.23,1.03.19.22.58.26.85.26h.35v.92h-.07c-.31-.01-.62-.03-.94-.03h-3c-.31,0-.62.01-.94.03h-.07v-.92h.35c.28,0,.65-.04.84-.27.2-.24.23-.72.23-1.02v-6.62c0-.3-.03-.77-.23-1-.2-.22-.57-.26-.84-.26h-.35v-.92h.07v-.03Z"/>
    <path class="st1" d="M133.88,103.74v-6.86c-.01-.3-.04-.79-.24-1.02-.19-.22-.58-.26-.85-.26h-.35v-.92h.19c.71.01,1.41.04,2.13.04h.84c.43,0,.85-.01,1.29-.03h.07v.92h-.34c-.27,0-.62.04-.83.26s-.24.62-.24.91v8.94h-2.56l-4.5-9.06v6.85c.01.3.04.79.24,1.02s.57.26.85.26h.37v.92h-.07c-.3-.01-.58-.03-.88-.03h-2.74c-.27,0-.53,0-.8.03h-.07v-.92h.35c.28,0,.66-.04.87-.27.2-.24.23-.72.23-1.02v-6.67c0-.3-.03-.73-.23-.96-.2-.22-.56-.26-.83-.26h-.34v-.92h.38c.62.01,1.26.04,1.89.04h.79c.3,0,.6-.01.88-.03h.04l4.48,9.06h0Z"/>
    <path class="st1" d="M118.24,95.96v3.54h.76c.3,0,1.11,0,1.34-.24.22-.23.24-.84.24-1.14v-.07h.96v4.02h-.94v-.07c0-.31-.04-.9-.27-1.13-.24-.24-.98-.26-1.3-.26h-.8v3.91h2.43c.39,0,1.29-.03,1.57-.35.28-.34.33-1.32.33-1.74v-.07h1.03v3.4h-9.01v-.92h.43c.27,0,.65-.04.85-.26.2-.23.23-.73.23-1.03v-6.62c0-.3-.03-.79-.23-1.02-.19-.22-.58-.26-.85-.26h-.37v-.87h8.86v2.98h-1.04v-.35c0-.33-.03-.91-.28-1.15-.26-.26-1.13-.27-1.47-.27h-2.5v-.04Z"/>
    <path class="st1" d="M107.38,95.96v3.54h.76c.3,0,1.11,0,1.34-.24.22-.23.24-.84.24-1.14v-.07h.96v4.02h-.94v-.07c0-.31-.04-.9-.27-1.13-.24-.24-.98-.26-1.3-.26h-.8v3.91h2.43c.39,0,1.29-.03,1.57-.35.28-.34.33-1.32.33-1.74v-.07h1.03v3.4h-9.01v-.92h.43c.27,0,.65-.04.85-.26.2-.23.23-.73.23-1.03v-6.62c0-.3-.03-.79-.23-1.02-.19-.22-.58-.26-.85-.26h-.37v-.87h8.86v2.98h-1.04v-.35c0-.33-.03-.91-.28-1.15-.26-.26-1.13-.27-1.47-.27h-2.5v-.04Z"/>
    <path class="st1" d="M77.07,94.92v3.01h-1.29v-.47c0-.52-.11-1.07-.5-1.44-.41-.38-1.03-.46-1.57-.46-.6,0-1.26.09-1.75.45-.42.3-.61.71-.61,1.22,0,.34.08.66.31.94.27.31.77.54,1.15.69l2.25.91c.65.26,1.33.64,1.78,1.19.41.5.57,1.11.57,1.76,0,.99-.37,1.8-1.17,2.4-.91.68-2.1.85-3.2.85-.6,0-1.19-.04-1.78-.11-.68-.08-1.34-.19-2.02-.31h-.05v-3.2h1.25v.43c0,.6.15,1.17.61,1.56.5.42,1.26.52,1.9.52.58,0,1.22-.11,1.7-.47.42-.34.6-.8.6-1.33,0-.34-.09-.66-.31-.92-.26-.31-.66-.54-1.03-.69l-2.05-.87c-.69-.28-1.53-.72-2.03-1.29-.42-.47-.6-1.06-.6-1.68,0-.96.35-1.75,1.13-2.32.9-.65,2.1-.8,3.17-.8.53,0,1.06.05,1.59.12.64.08,1.28.22,1.91.35h.05v-.04Z"/>
  </g>
  <g>
    <path class="st0" d="M208.52,94.65v-5.29h2.25c.57,0,.98.05,1.23.15s.46.26.61.5.23.52.23.83c0,.39-.12.72-.35.98s-.58.42-1.04.49c.23.14.42.28.57.45s.35.45.61.85l.65,1.03h-1.28l-.77-1.15c-.27-.41-.46-.66-.56-.77s-.2-.18-.33-.22-.3-.05-.54-.05h-.22v2.21h-1.07,0ZM209.58,91.6h.79c.52,0,.83-.03.96-.07s.23-.12.3-.22.11-.24.11-.39c0-.18-.05-.33-.15-.43s-.23-.18-.41-.2c-.08,0-.35-.01-.77-.01h-.83v1.34h0Z"/>
    <circle class="st2" cx="210.53" cy="92.16" r="4.5" transform="translate(-13.63 41.47) rotate(-10.9)"/>
  </g>
  <g>
    <path class="st0" d="M91.44,112.17v-.24h5.52v.24h-.34c-.31,0-.56.04-.73.14-.12.07-.23.18-.31.33-.05.11-.08.39-.08.85v4.48c0,.88-.09,1.52-.3,1.91s-.56.73-1.06,1-1.13.41-1.83.41c-.87,0-1.57-.2-2.12-.61-.54-.41-.81-.85-.81-1.34,0-.31.11-.57.33-.76.22-.19.49-.3.8-.3s.57.08.79.26.31.39.31.65c0,.12-.01.23-.05.33-.03.04-.09.16-.24.34s-.22.31-.22.39c0,.12.07.22.2.3.19.12.45.19.76.19.22,0,.41-.05.54-.15.15-.09.24-.26.3-.46.05-.2.08-.79.08-1.75v-4.88c0-.46-.03-.76-.08-.88-.05-.12-.18-.22-.34-.31s-.41-.14-.69-.14h-.43.01Z"/>
    <path class="st0" d="M101.35,112.44v3.72h.2c.66,0,1.14-.18,1.44-.54.3-.37.49-.9.57-1.61h.28v4.79h-.28c-.07-.52-.19-.95-.39-1.28s-.42-.56-.69-.66-.64-.18-1.14-.18v2.58c0,.5.03.81.07.92.05.11.14.2.27.27.14.07.35.11.64.11h.62c.98,0,1.75-.2,2.33-.6s1-1,1.26-1.8h.28l-.46,2.9h-8.98v-.24h.34c.3,0,.54-.04.73-.14.14-.07.23-.18.31-.33.05-.11.08-.39.08-.85v-6.01c0-.41,0-.66-.04-.76-.05-.16-.15-.28-.28-.37-.19-.12-.46-.19-.8-.19h-.34v-.24h8.7v2.7h-.28c-.15-.66-.35-1.14-.62-1.42s-.65-.5-1.14-.64c-.28-.08-.83-.12-1.61-.12h-1.07.01Z"/>
    <path class="st0" d="M123.09,111.92v.24c-.19,0-.35.05-.49.14s-.24.2-.35.37c-.03.05-.19.41-.49,1.04l-3.26,7.54h-.3l-2.58-5.89-2.84,5.89h-.28l-3.42-7.46c-.35-.75-.6-1.21-.73-1.36-.14-.16-.37-.24-.69-.27v-.24h4.5v.24c-.37,0-.61.05-.72.15-.12.08-.18.19-.18.33,0,.18.12.53.38,1.09l2.03,4.44,1.63-3.47-.43-.98c-.23-.53-.42-.88-.54-1.06-.12-.18-.27-.3-.43-.38s-.41-.11-.73-.11v-.24h5.03v.24c-.35,0-.61.03-.76.07-.11.03-.19.08-.26.16s-.09.16-.09.26c0,.11.11.42.34.95l1.9,4.33,1.7-3.92c.18-.41.28-.68.33-.83s.07-.28.07-.41c0-.19-.07-.33-.22-.43s-.42-.16-.81-.18v-.24s2.7,0,2.7,0Z"/>
    <path class="st0" d="M127.5,112.44v3.72h.2c.66,0,1.14-.18,1.44-.54.3-.37.49-.9.57-1.61h.28v4.79h-.28c-.07-.52-.19-.95-.39-1.28s-.42-.56-.69-.66-.64-.18-1.14-.18v2.58c0,.5.03.81.07.92.05.11.14.2.27.27s.35.11.64.11h.62c.98,0,1.75-.2,2.33-.6s1-1,1.26-1.8h.28l-.46,2.9h-8.98v-.24h.34c.3,0,.54-.04.73-.14.14-.07.23-.18.31-.33.05-.11.08-.39.08-.85v-6.01c0-.41,0-.66-.04-.76-.05-.16-.15-.28-.28-.37-.19-.12-.46-.19-.8-.19h-.34v-.24h8.7v2.7h-.28c-.15-.66-.35-1.14-.62-1.42s-.65-.5-1.14-.64c-.28-.08-.83-.12-1.61-.12h-1.07.01Z"/>
    <path class="st0" d="M143.6,117.85l-.39,3.21h-9.22v-.24h.34c.3,0,.54-.04.73-.14.14-.07.23-.18.31-.33.05-.11.08-.39.08-.85v-6.01c0-.46-.03-.76-.08-.88-.05-.12-.16-.22-.34-.31-.18-.08-.41-.14-.69-.14h-.34v-.24h5.53v.24h-.45c-.3,0-.54.04-.73.14-.14.07-.23.18-.31.33-.05.11-.08.39-.08.85v5.83c0,.46.03.76.09.9.07.12.18.22.37.28.12.04.43.05.92.05h.87c.56,0,1.02-.08,1.38-.26.37-.18.69-.43.95-.81.27-.37.52-.91.76-1.63h.31-.01Z"/>
    <path class="st0" d="M154.07,117.85l-.39,3.21h-9.22v-.24h.34c.3,0,.54-.04.73-.14.14-.07.23-.18.31-.33.05-.11.08-.39.08-.85v-6.01c0-.46-.03-.76-.08-.88-.05-.12-.16-.22-.34-.31-.18-.08-.41-.14-.69-.14h-.34v-.24h5.53v.24h-.45c-.3,0-.54.04-.73.14-.14.07-.23.18-.31.33-.05.11-.08.39-.08.85v5.83c0,.46.03.76.09.9.07.12.18.22.37.28.12.04.43.05.92.05h.87c.56,0,1.02-.08,1.38-.26.37-.18.69-.43.95-.81.27-.37.52-.91.76-1.63h.31-.01Z"/>
    <path class="st0" d="M158.9,112.44v3.72h.2c.66,0,1.14-.18,1.44-.54.3-.37.49-.9.57-1.61h.28v4.79h-.28c-.07-.52-.19-.95-.39-1.28s-.42-.56-.69-.66-.64-.18-1.14-.18v2.58c0,.5.03.81.07.92.05.11.14.2.27.27s.35.11.64.11h.62c.98,0,1.75-.2,2.33-.6s1-1,1.26-1.8h.28l-.46,2.9h-8.98v-.24h.34c.3,0,.54-.04.73-.14.14-.07.23-.18.31-.33.05-.11.08-.39.08-.85v-6.01c0-.41,0-.66-.04-.76-.05-.16-.15-.28-.28-.37-.19-.12-.46-.19-.8-.19h-.34v-.24h8.7v2.7h-.28c-.15-.66-.35-1.14-.62-1.42s-.65-.5-1.14-.64c-.28-.08-.83-.12-1.61-.12h-1.07.01Z"/>
    <path class="st0" d="M169.27,116.89v2.56c0,.49.04.8.11.94.07.12.19.23.37.31s.5.11.98.11v.24h-5.32v-.24c.47,0,.8-.04.98-.12s.28-.18.37-.31c.07-.12.11-.43.11-.94v-5.93c0-.49-.04-.8-.11-.94-.07-.12-.19-.23-.37-.31s-.5-.11-.98-.11v-.24h4.83c1.26,0,2.17.08,2.75.23s1.06.43,1.42.84.56.9.56,1.45c0,.68-.27,1.23-.83,1.67-.35.28-.84.49-1.48.62l2.5,3.09c.33.39.56.65.69.75.2.14.45.22.73.23v.24h-3.27l-3.35-4.16h-.69ZM169.27,112.41v4h.43c.71,0,1.25-.05,1.6-.18.35-.11.62-.33.83-.62s.3-.69.3-1.17c0-.69-.19-1.21-.56-1.55s-.96-.5-1.79-.5h-.81,0Z"/>
    <path class="st0" d="M183.81,111.7l.08,3.05h-.31c-.15-.76-.52-1.38-1.09-1.84s-1.21-.69-1.89-.69c-.52,0-.94.12-1.23.37s-.46.53-.46.84c0,.2.05.38.16.54.15.22.38.42.72.62.24.15.8.41,1.67.79,1.22.53,2.03,1.02,2.46,1.49.42.46.62,1,.62,1.6,0,.76-.34,1.42-1.02,1.97-.68.56-1.53.83-2.58.83-.33,0-.64-.03-.92-.08s-.65-.16-1.1-.33c-.24-.09-.45-.14-.61-.14-.14,0-.27.04-.42.14s-.27.23-.37.41h-.28v-3.46h.28c.23.98.65,1.71,1.3,2.22s1.33.76,2.08.76c.57,0,1.03-.14,1.37-.41.34-.27.52-.6.52-.96,0-.22-.07-.42-.19-.62-.14-.2-.33-.39-.6-.58s-.73-.42-1.41-.71c-.95-.41-1.63-.76-2.03-1.04s-.73-.61-.95-.96-.34-.75-.34-1.18c0-.73.3-1.34.91-1.86s1.37-.77,2.31-.77c.34,0,.66.04.98.11.24.05.53.15.88.3.34.15.58.22.72.22s.24-.04.31-.11c.08-.07.15-.24.22-.52h.23-.01Z"/>
  </g>
</svg>