<?xml version="1.0" encoding="UTF-8"?>
<svg id="Layer_1" xmlns="http://www.w3.org/2000/svg" version="1.1" viewBox="0 0 284.22 185.49">
  <!-- Generator: Adobe Illustrator 30.1.0, SVG Export Plug-In . SVG Version: 2.1.1 Build 136)  -->
  <defs>
    <style>
      .st0 {
        fill: #fff;
      }

      .st0, .st1 {
        fill-rule: evenodd;
      }

      .st1 {
        fill: #231f20;
      }

      .st2 {
        stroke-width: .75px;
      }

      .st2, .st3 {
        stroke: #fff;
      }

      .st2, .st3, .st4 {
        fill: none;
        stroke-miterlimit: 2.61;
      }

      .st3 {
        stroke-width: 1.48px;
      }

      .st4 {
        stroke: #231f20;
        stroke-width: 1.69px;
      }
    </style>
  </defs>
  <path class="st1" d="M119.7,100.11c-1.92-.46-5.53-.64-6.36,1.69-.43,1.18.07,2.53,1.03,3.29.96.75,2.29,1.12,3.04,2.16,1.17,2.62-2.89,3.41-3.35.51-.39,0-.67.01-1.06.01v2.37c1.65.31,4.48.69,5.87-.49.64-.55.96-1.32.96-2.26s-.13-1.35-.78-1.96c-.39-.39-.85-.72-1.33-1-.87-.52-2.04-.82-2.23-1.99-.37-2.17,2.92-2.25,3.19-.1h1.05v-2.22"/>
  <path class="st1" d="M120.5,99.93h4.12v.49c-.61.1-.88.55-.73,1.14.45,1.8.9,3.61,1.35,5.41.16.69.12.64.31,0,.67-2.34,1.35-4.67,2.02-7.01h1.77c.54,2.38,1.15,4.73,1.65,7.16.13.66.09.61.3,0,.54-1.68,1.06-3.52,1.62-5.17.25-.78.15-1.32-.7-1.48v-.48h3.13v.45c-.54.15-.78.66-.94,1.15-1.02,2.93-2.04,5.87-3.05,8.8h-1.84c-.57-2.34-1.12-4.67-1.69-7.01-.69,2.34-1.38,4.69-2.07,7.02h-1.93c-.82-3.04-1.63-6.09-2.46-9.13-.1-.4-.33-.82-.82-.78v-.57"/>
  <path class="st1" d="M132.98,110.39v-.58c.75.03,1.05-.96,1.26-1.51,1.05-2.8,2.11-5.6,3.14-8.4h2.08c.84,2.86,1.68,5.7,2.5,8.56.18.58.36,1.23,1.05,1.39v.55h-4.15v-.57c.79-.09.82-.85.64-1.45-.1-.39-.22-.78-.33-1.17h-3.29c-.1.33-.21.64-.31.97-.22.69-.33,1.56.64,1.65v.57h-3.25"/>
  <polygon class="st0" points="137.63 101.99 138.28 104.09 138.91 106.19 137.63 106.19 136.36 106.19 137 104.09 137.63 101.99"/>
  <path class="st1" d="M162.38,110.39v-.58c.75.03,1.05-.96,1.26-1.51,1.05-2.8,2.11-5.6,3.14-8.4h2.08c.84,2.86,1.68,5.7,2.5,8.56.18.58.36,1.23,1.05,1.39v.55h-4.15v-.57c.81-.09.82-.85.64-1.45-.1-.39-.22-.78-.33-1.17h-3.29c-.1.33-.21.64-.31.97-.22.69-.33,1.56.64,1.65v.57h-3.25"/>
  <polygon class="st0" points="167.06 101.99 167.68 104.09 168.33 106.19 167.06 106.19 165.78 106.19 166.41 104.09 167.06 101.99"/>
  <path class="st1" d="M125.73,122.61v-.58c.75.03,1.05-.96,1.26-1.51,1.05-2.8,2.11-5.6,3.14-8.4h2.08c.84,2.86,1.68,5.7,2.5,8.56.18.58.36,1.23,1.05,1.39v.55h-4.15v-.57c.81-.09.82-.85.64-1.45-.1-.39-.22-.78-.33-1.17h-3.29c-.1.33-.21.64-.31.97-.22.69-.33,1.56.64,1.65v.57h-3.25"/>
  <polygon class="st0" points="130.4 114.21 131.03 116.31 131.67 118.4 130.4 118.4 129.13 118.4 129.76 116.31 130.4 114.21"/>
  <path class="st1" d="M143.4,100h5.35c3.25.06,4.19,3.89,1.27,5.36-.69.34-.25.36.12.63,1.47,1.05,1.47,3.91,2.89,3.76v.63h-2.38c-.52,0-.57,0-.85-.48-.73-1.15-1.21-2.96-1.83-3.65-.27-.31-.66-.3-1.05-.28-.13,0-.25.01-.39.01v2.7c0,.58.19,1.12.88,1.15v.55h-4v-.58c.45-.1.78-.33.76-.9v-7.35c0-.57-.16-.99-.79-1.09v-.46"/>
  <path class="st0" d="M146.62,100.92v4.16c1.12.01,2.29.15,2.68-1.21.16-.58.19-1.27,0-1.86-.34-.94-1.26-1.27-2.67-1.08"/>
  <path class="st1" d="M153.44,109.84c.55-.18.7-.49.7-1.06v-7.55c.01-.45-.25-.67-.73-.75v-.49h3.05c1.33,2.32,2.65,4.66,3.98,6.98.25.43.18.31.18-.12v-5.35c0-.54-.31-.96-.85-1.05v-.46h2.87v.46c-.58.07-.79.51-.79,1.02v8.94h-1.99c-1.44-2.53-2.87-5.08-4.31-7.61-.16-.28-.12-.21-.12.07v5.88c0,.51.3.94.84,1.02v.61h-2.84v-.57"/>
  <path class="st1" d="M136.09,122.06c.55-.18.7-.49.7-1.06v-7.55c.01-.45-.25-.67-.73-.75v-.49h3.05c1.33,2.32,2.65,4.66,3.98,6.98.25.43.18.31.18-.12v-5.35c0-.54-.31-.96-.85-1.05v-.46h2.89v.46c-.58.07-.79.51-.79,1.02v8.94h-1.99c-1.44-2.53-2.87-5.08-4.31-7.61-.16-.28-.12-.21-.12.07v5.88c0,.51.3.94.84,1.02v.61h-2.84v-.57"/>
  <path class="st1" d="M115.85,112.18h4.06v.52c-.58.18-.79.51-.79,1.08v2.98c.45,0,.58.06.91-.24.72-.63,1.45-1.48,2.2-2.52.39-.55.22-1.21-.49-1.38v-.49h3.88v.39c0,.27.03.19-.19.27-.93.28-2.29,2.28-3.46,3.5-.28.3-.25.22-.01.55,1.32,1.78,2.59,4.46,3.77,5.2v.58h-3.94v-.58c.82-.07.3-.91.03-1.32-.55-.82-1.06-1.57-1.6-2.35-.28-.42-.58-.88-1.17-.67v3.22c0,.58.21,1.03.87,1.12v.58h-4.07v-.58c.76-.06.84-.67.84-1.29v-7.23c0-.49-.36-.79-.84-.82v-.52"/>
  <path class="st1" d="M153.56,112.44c-2.2-.67-5.67-.63-6.84,1.81-.76,1.62-.87,4.1-.34,5.78.93,3.04,4.64,2.86,7.16,2.25v-2.37h-1.05c-.07,1.36-1.05,1.99-1.98,1.84-1.17-.18-1.56-1.29-1.83-2.28-.43-1.65-.36-3.25.16-4.84.22-.67.54-1.27,1.21-1.6,1.09-.54,2.35.19,2.38,1.51h1.09c0-.7.01-1.41.03-2.13"/>
  <path class="st1" d="M154.72,112.16h4.01v.51c-.57.13-.76.57-.76,1.11v2.83h3.41v-2.9c0-.52-.24-.87-.76-1.03v-.52h3.88v.48c-.58.22-.76.63-.76,1.21v6.93c0,.57.15,1.17.82,1.3v.51h-3.97v-.52c.76-.1.79-.75.79-1.36v-3.05h-3.46v3.17c0,.6.12,1.12.84,1.21v.61h-3.98v-.58c.66-.09.81-.67.81-1.24v-7.19c0-.55-.3-.87-.87-.91v-.51"/>
  <path class="st1" d="M165.66,112.16h4v.51c-.72.1-.78.72-.78,1.3v6.87c0,.55.06,1.08.75,1.15v.57h-3.94v-.48c.67-.31.78-.76.78-1.44v-6.8c0-.61-.12-1.08-.81-1.23v-.45"/>
  <path class="st1" d="M118.21,96.69v-4.85h1.27v4.85h-1.27ZM118.21,91.2v-1.18h1.27v1.18h-1.27ZM115.8,96.69h-1.27v-4.85h1.18v.69c.21-.33.39-.54.55-.64s.34-.15.55-.15c.3,0,.57.07.84.24l-.4,1.12c-.21-.13-.42-.21-.6-.21s-.33.04-.46.15c-.12.1-.22.28-.3.54-.07.25-.1.79-.1,1.62v1.5h.01ZM108,94.54l1.32-.13c.07.43.24.76.48.97.24.21.57.31.97.31.43,0,.76-.09.97-.27.22-.18.33-.4.33-.64,0-.16-.04-.3-.13-.4s-.25-.21-.48-.28c-.16-.06-.51-.15-1.08-.3-.72-.18-1.23-.4-1.51-.66-.4-.37-.61-.82-.61-1.35,0-.34.09-.66.28-.96.19-.3.46-.52.84-.67.36-.15.79-.24,1.32-.24.84,0,1.47.18,1.89.55s.64.87.67,1.48l-1.35.04c-.06-.34-.18-.6-.37-.75s-.48-.22-.85-.22-.69.07-.91.24c-.13.1-.21.24-.21.42,0,.16.06.3.19.4.16.15.58.3,1.24.45.66.15,1.14.31,1.45.48s.55.39.73.67c.18.28.27.64.27,1.06,0,.39-.1.75-.31,1.08s-.51.58-.9.75-.87.24-1.45.24c-.84,0-1.5-.19-1.95-.58s-.72-.96-.81-1.71h-.03Z"/>
  <circle class="st4" cx="142.11" cy="92.74" r="43.29"/>
  <path class="st1" d="M137.95,86.35c-.18.09-.16.25-.01.31.18.07.28,0,.37-.13.24-.31.16-.69-.06-.99-.15-.19-.34-.34-.55-.45-1.26-.67-2.07.49-1.11.96.27.13.42.09.7.06s.57-.03.72.06c.19.12.04.13-.06.18"/>
  <g>
    <g>
      <path class="st1" d="M149.07,56.47c1-.4,2.02-.39,3.04-.21.45.07.69.21,1.08.42,1.2.64,2.74,1.2,4.12,1.8.3.12.6.25.87.4,2.17,1.26,2.11,4.07,1.24,5.35-.15.22-.22.22-.45.34-.24.12-.39.37-.45.76-.06.33-.06.42-.25.69-.48.69-1,1.26-1.54,1.69-.36.3-.6.34-1.03.51-.85.31-1.62.96-2.35,1.75-.15.16-.27.27-.46.39-.78.46-1.98.9-2.41,1.27-.21.18-.09.24-.4.25-.45.03-.88,0-1.29-.12-.24-.06-.16-.06-.04-.24.96-1.44.9-3.47.37-5.79-.07-.3-.15-.6-.21-.91-.27-1.3-.39-2.62-.07-3.92.06-.22.12-.46.18-.69.3-1.2.48-2.38-.07-3.46-.1-.21-.13-.18.1-.27h.04Z"/>
      <path class="st3" d="M149.07,56.47c1-.4,2.02-.39,3.04-.21.45.07.69.21,1.08.42,1.2.64,2.74,1.2,4.12,1.8.3.12.6.25.87.4,2.17,1.26,2.11,4.07,1.24,5.35-.15.22-.22.22-.45.34-.24.12-.39.37-.45.76-.06.33-.06.42-.25.69-.48.69-1,1.26-1.54,1.69-.36.3-.6.34-1.03.51-.85.31-1.62.96-2.35,1.75-.15.16-.27.27-.46.39-.78.46-1.98.9-2.41,1.27-.21.18-.09.24-.4.25-.45.03-.88,0-1.29-.12-.24-.06-.16-.06-.04-.24.96-1.44.9-3.47.37-5.79-.07-.3-.15-.6-.21-.91-.27-1.3-.39-2.62-.07-3.92.06-.22.12-.46.18-.69.3-1.2.48-2.38-.07-3.46-.1-.21-.13-.18.1-.27h.04Z"/>
    </g>
    <g>
      <path class="st1" d="M135.4,56.47c-1-.4-2.02-.39-3.04-.21-.45.07-.69.21-1.08.42-1.2.64-2.74,1.2-4.12,1.8-.3.12-.6.25-.87.4-2.17,1.26-2.11,4.07-1.24,5.35.15.22.22.22.45.34.24.12.39.37.45.76.06.33.06.42.25.69.48.69,1,1.26,1.54,1.69.36.3.6.34,1.03.51.85.31,1.62.96,2.35,1.75.15.16.27.27.46.39.78.46,1.98.9,2.41,1.27.21.18.09.24.4.25.45.03.88,0,1.29-.12.24-.06.16-.06.04-.24-.96-1.44-.9-3.47-.37-5.79.07-.3.15-.6.21-.91.27-1.3.39-2.62.07-3.92-.06-.22-.12-.46-.18-.69-.3-1.2-.48-2.38.07-3.46.1-.21.13-.18-.1-.27h-.04Z"/>
      <path class="st3" d="M135.4,56.47c-1-.4-2.02-.39-3.04-.21-.45.07-.69.21-1.08.42-1.2.64-2.74,1.2-4.12,1.8-.3.12-.6.25-.87.4-2.17,1.26-2.11,4.07-1.24,5.35.15.22.22.22.45.34.24.12.39.37.45.76.06.33.06.42.25.69.48.69,1,1.26,1.54,1.69.36.3.6.34,1.03.51.85.31,1.62.96,2.35,1.75.15.16.27.27.46.39.78.46,1.98.9,2.41,1.27.21.18.09.24.4.25.45.03.88,0,1.29-.12.24-.06.16-.06.04-.24-.96-1.44-.9-3.47-.37-5.79.07-.3.15-.6.21-.91.27-1.3.39-2.62.07-3.92-.06-.22-.12-.46-.18-.69-.3-1.2-.48-2.38.07-3.46.1-.21.13-.18-.1-.27h-.04Z"/>
    </g>
    <path class="st1" d="M137.86,88.17c.07-1.39.84-2.49,2.02-2.59.27-.03.22,0,.18-.27-.3-1.48-.58-2.98-.88-4.46-.09-.49-.03-.52-.36-.15-1.12,1.26-2.26,2.07-3.43,2.58-1.42.61-1.41-.6-.52-1.26,1.02-.78,1.78-1.77,2.2-2.68.06-.12.04-.13,0-.25-.06-.22-.09-.42.13-.61.09-.07.21-.13.3-.22.18-.19.19-.48.09-.73-.09-.19-.27-.36-.37-.54-.84-1.27-.76-2.59-.37-4.03.04-.15.09-.3.13-.46.16-.64-.03-1.05-.3-1.41-.12-.16-.24-.31-.34-.49-.88-1.66-.49-3.94-.28-5.87.04-.37.12-.7.19-1.08.19-.99.13-1.93-.03-2.87-.07-.43-.18-.87-.25-1.3-.58-3.29.73-5.09,4.15-5.78.31-.06.39-.04.69.04.63.18,1.26.18,1.86,0,.33-.1.54-.16.9-.16,3.22-.03,5.6,2.41,4.94,6.06-.06.33-.16.66-.24.99-.28,1.24-.33,2.52-.07,3.8.1.51.24,1,.34,1.5.31,1.56.46,3.25-.03,4.67-.1.28-.24.51-.37.78-.25.54-.3,1.14-.12,1.83.07.3.18.57.21.87.1.7.03,1.38-.16,2.04-.1.39-.4.69.07.94.27.13.42.37.37.76-.03.27-.06.3.06.55.78,1.59,1.8,2.73,2.95,3.59,1.06.79-.34,1.35-1.05.96-1.47-.81-2.74-1.9-3.82-3.29-.19-.24-.15-.24-.22.06-.64,2.81-.69,6.05-.81,9.24-.03.9-.03,1.81-.12,2.7-.34,3.67-1.89,5.57-4.51,5.53-.58,0-1.2-.09-1.72-.33-1.74-.81-2.19-3.14-1.3-5.15.13-.3.3-.55.46-.84.13-.22.27-.43.4-.66.19-.31.25-.3-.12-.25-1.6.15-1.96-.63-1.03-1.45.12-.1.15-.1.15-.27h.04Z"/>
    <path class="st2" d="M137.86,88.17c.07-1.39.84-2.49,2.02-2.59.27-.03.22,0,.18-.27-.3-1.48-.58-2.98-.88-4.46-.09-.49-.03-.52-.36-.15-1.12,1.26-2.26,2.07-3.43,2.58-1.42.61-1.41-.6-.52-1.26,1.02-.78,1.78-1.77,2.2-2.68.06-.12.04-.13,0-.25-.06-.22-.09-.42.13-.61.09-.07.21-.13.3-.22.18-.19.19-.48.09-.73-.09-.19-.27-.36-.37-.54-.84-1.27-.76-2.59-.37-4.03.04-.15.09-.3.13-.46.16-.64-.03-1.05-.3-1.41-.12-.16-.24-.31-.34-.49-.88-1.66-.49-3.94-.28-5.87.04-.37.12-.7.19-1.08.19-.99.13-1.93-.03-2.87-.07-.43-.18-.87-.25-1.3-.58-3.29.73-5.09,4.15-5.78.31-.06.39-.04.69.04.63.18,1.26.18,1.86,0,.33-.1.54-.16.9-.16,3.22-.03,5.6,2.41,4.94,6.06-.06.33-.16.66-.24.99-.28,1.24-.33,2.52-.07,3.8.1.51.24,1,.34,1.5.31,1.56.46,3.25-.03,4.67-.1.28-.24.51-.37.78-.25.54-.3,1.14-.12,1.83.07.3.18.57.21.87.1.7.03,1.38-.16,2.04-.1.39-.4.69.07.94.27.13.42.37.37.76-.03.27-.06.3.06.55.78,1.59,1.8,2.73,2.95,3.59,1.06.79-.34,1.35-1.05.96-1.47-.81-2.74-1.9-3.82-3.29-.19-.24-.15-.24-.22.06-.64,2.81-.69,6.05-.81,9.24-.03.9-.03,1.81-.12,2.7-.34,3.67-1.89,5.57-4.51,5.53-.58,0-1.2-.09-1.72-.33-1.74-.81-2.19-3.14-1.3-5.15.13-.3.3-.55.46-.84.13-.22.27-.43.4-.66.19-.31.25-.3-.12-.25-1.6.15-1.96-.63-1.03-1.45.12-.1.15-.1.15-.27h.04Z"/>
  </g>
  <path class="st0" d="M141.36,90.69c.13.63.13,1.35.04,2.1-.18,1.42-.99,1.09-.93-.1.04-.84.24-1.54.57-2.08.22-.37.22-.3.31.09h0Z"/>
  <path class="st2" d="M141.36,90.69c.13.63.13,1.35.04,2.1-.18,1.42-.99,1.09-.93-.1.04-.84.24-1.54.57-2.08.22-.37.22-.3.31.09h0Z"/>
  <path class="st0" d="M139.43,88.64c-.13-.37-.18-.75-.03-1.14.36-.93,1.33-.48,1,.39-.18.46-.39.73-.61.91-.27.22-.25.15-.36-.15h0Z"/>
  <path class="st2" d="M139.43,88.64c-.13-.37-.18-.75-.03-1.14.36-.93,1.33-.48,1,.39-.18.46-.39.73-.61.91-.27.22-.25.15-.36-.15h0Z"/>
</svg>