<?xml version="1.0" encoding="UTF-8"?>
<svg id="Layer_1" xmlns="http://www.w3.org/2000/svg" version="1.1" viewBox="0 0 284.22 185.49">
  <!-- Generator: Adobe Illustrator 30.1.0, SVG Export Plug-In . SVG Version: 2.1.1 Build 136)  -->
  <path d="M213.28,87.97c-3.71-.2-7.14-1.73-9.65-4.29-2.68-2.73-4.2-6.45-4.39-10.74-.04-.93-.8-1.67-1.73-1.67h-18.3c-.08,0-.16-.05-.18-.12-.38-1.15-.83-2.29-1.32-3.41-2.62-7.24-7.33-13.44-13.63-17.94-6.44-4.6-14.04-7.03-21.98-7.03s-15.54,2.43-21.98,7.03c-6.29,4.5-11,10.7-13.63,17.94-.49,1.12-.94,2.26-1.32,3.41-.02.07-.1.12-.18.12h-18.29c-.93,0-1.69.73-1.73,1.67-.19,4.29-1.7,8-4.39,10.74-2.52,2.56-5.95,4.09-9.65,4.29-.91.05-1.63.81-1.63,1.74v51.1c0,.5.21.97.58,1.3.37.33.86.48,1.36.42,17.69-2.12,43.26-3.34,70.15-3.34s53.8,1.28,71.57,3.51c.07,0,.14.01.22.01.42,0,.83-.15,1.15-.43.37-.33.59-.8.59-1.3v-51.28c0-.92-.72-1.69-1.63-1.74ZM70.84,140.81v-51.1c0-.1.08-.19.17-.2,8.72-.48,15.09-7.26,15.49-16.5,0-.11.09-.19.19-.19h18.29c.75,0,1.41-.47,1.64-1.18.37-1.11.8-2.22,1.28-3.3l.02-.05c2.51-6.96,7.04-12.92,13.08-17.24,6.18-4.41,13.47-6.75,21.09-6.75s14.91,2.33,21.09,6.75c6.05,4.32,10.57,10.28,13.08,17.24l.02.05c.48,1.08.91,2.19,1.28,3.3.23.7.89,1.18,1.64,1.18h18.3c.1,0,.19.08.19.19.2,4.62,1.89,8.62,4.63,11.53s6.5,4.72,10.87,4.96c.1,0,.18.09.18.2v51.28c0,.07-.04.12-.07.14-.03.03-.08.06-.15.05-17.83-2.24-43.99-3.53-71.77-3.53s-52.59,1.22-70.34,3.35c-.07,0-.12-.02-.15-.05-.03-.03-.06-.07-.06-.14Z"/>
  <g>
    <path d="M85.61,105.83c-.27-.08-.63-.14-1.06-.21-.44-.06-.96-.09-1.56-.08,0,3.88,0,8.75,0,12.63,0,1.05.02,1.92.05,2.62.04.7.09,1.29.14,1.74.06.51.11.94.2,1.28-1.31.13-1.96.19-3.27.32.07-.35.13-.8.18-1.33.04-.47.09-1.07.13-1.78.04-.72.06-1.6.06-2.66,0-3.93,0-8.84,0-12.77-.61.01-1.13.06-1.56.14-.43.08-.78.16-1.06.25-.32.11-.58.23-.79.36.1-1.84.15-1.77.25-3.61,2.93,0,5.87,0,8.8,0,.11,1.76.16,1.65.27,3.41-.2-.11-.47-.22-.79-.31Z"/>
    <path d="M99.47,103.95c-.04.43-.09.99-.13,1.67-.04.68-.05,1.5-.06,2.46,0,3.04,0,6.08,0,9.12,0,.98.02,1.8.05,2.45.04.66.08,1.2.12,1.63.05.48.11.89.2,1.2-1.31.09-1.96.14-3.27.24.07-.33.14-.74.2-1.24.05-.44.09-.99.14-1.66.04-.67.06-1.49.06-2.48,0-1.13,0-1.69,0-2.82-2.07.09-3.11.14-5.19.24,0,1.15,0,1.73,0,2.88,0,1.01.02,1.85.05,2.53.04.68.09,1.24.14,1.67.06.49.11.91.2,1.23-1.31.11-1.96.16-3.27.28.07-.34.13-.77.18-1.28.04-.45.09-1.03.13-1.72.04-.69.06-1.54.06-2.56,0-3.16,0-6.32,0-9.49,0-1-.02-1.85-.06-2.55s-.09-1.28-.13-1.73c-.05-.51-.11-.93-.18-1.26h3.27c-.08.33-.14.76-.2,1.25-.05.44-.11,1.02-.14,1.72-.04.7-.05,1.54-.05,2.53,0,1.14,0,1.71,0,2.85,2.07-.07,3.11-.1,5.19-.17,0-1.12,0-1.67,0-2.79,0-.97-.02-1.79-.06-2.48-.04-.68-.08-1.25-.13-1.68-.06-.49-.12-.9-.2-1.23h3.27c-.08.32-.15.73-.2,1.21Z"/>
    <path d="M112.38,116.61c.18.93.35,1.71.51,2.34.16.63.31,1.14.44,1.55.14.46.29.84.43,1.14-1.41.07-2.11.1-3.52.17.02-.26.03-.59,0-.98-.02-.34-.06-.78-.11-1.32-.05-.53-.14-1.19-.27-1.97-1.66.07-2.49.1-4.15.18-.13.8-.22,1.47-.27,2.02-.05.55-.09,1-.11,1.35-.03.4-.02.74,0,1-1.41.09-2.11.13-3.52.22.13-.33.27-.74.41-1.23.13-.43.28-.98.44-1.64.16-.66.34-1.48.53-2.45.56-3.01,1.13-6.02,1.7-9.02.18-.94.31-1.75.4-2.41.09-.66.14-1.21.17-1.63.03-.47.05-.88.04-1.19h4.58c-.02.31,0,.71.04,1.17.03.41.08.95.17,1.61.09.65.22,1.44.4,2.37.56,2.91,1.13,5.82,1.69,8.73ZM109.27,114.13c-.43-2.48-.65-3.72-1.09-6.22-.06-.38-.12-.74-.2-1.08-.07-.34-.14-.66-.2-.97-.06.31-.13.64-.2.98-.07.34-.14.7-.2,1.09-.44,2.51-.66,3.77-1.1,6.3,1.19-.04,1.78-.06,2.97-.1Z"/>
    <path d="M123.01,105.8c-.27-.07-.63-.13-1.06-.19-.44-.06-.96-.09-1.57-.08,0,3.43,0,7.41,0,10.84,0,.92.02,1.69.05,2.31.04.62.09,1.14.14,1.54.06.45.11.84.2,1.14-1.31.05-1.96.07-3.27.12.07-.31.13-.7.18-1.16.04-.41.09-.93.13-1.56.04-.63.06-1.4.06-2.33,0-3.44,0-7.45,0-10.89-.61,0-1.13.04-1.56.11-.43.07-.78.13-1.06.21-.32.09-.58.19-.79.3.1-1.6.15-1.83.25-3.43h8.8c.11,1.57.16,1.79.27,3.35-.2-.1-.47-.2-.79-.29Z"/>
    <path d="M134.3,105.75c-.27-.07-.63-.13-1.06-.19-.44-.06-.96-.09-1.57-.09,0,3.37,0,7.31,0,10.68,0,.91.02,1.67.05,2.28.04.61.09,1.13.14,1.52.06.44.11.83.2,1.12-1.31.02-1.97.03-3.27.06.07-.3.13-.68.18-1.13.04-.4.09-.91.13-1.53.04-.61.06-1.38.06-2.29,0-3.38,0-7.32,0-10.7-.61,0-1.13.04-1.56.1-.43.06-.78.13-1.06.2-.32.09-.58.19-.79.29.1-1.56.15-1.78.25-3.34,2.93,0,5.87,0,8.8,0,.11,1.55.16,1.76.27,3.3-.2-.1-.47-.2-.79-.29Z"/>
    <path d="M148.36,102.73c-.08.3-.15.67-.2,1.12-.04.4-.09.91-.12,1.54s-.05,1.38-.05,2.27c0,2.57,0,3.85,0,6.42,0,1.03-.11,1.98-.32,2.87-.21.89-.54,1.65-.97,2.3-.43.65-.96,1.16-1.59,1.53-.63.37-1.37.55-2.2.55-.84,0-1.57-.19-2.21-.56-.64-.37-1.17-.88-1.6-1.53-.43-.65-.75-1.42-.97-2.3-.21-.89-.32-1.84-.32-2.87,0-2.57,0-3.85,0-6.42,0-.89-.02-1.64-.06-2.27-.04-.63-.08-1.14-.13-1.54-.06-.45-.13-.83-.2-1.12h3.27c-.08.3-.15.67-.2,1.12-.04.4-.09.91-.13,1.54-.04.63-.05,1.38-.05,2.27,0,2.57,0,3.85,0,6.41,0,.42.03.86.09,1.33.06.47.18.9.38,1.29s.45.72.79.98c.33.26.78.39,1.34.39.55,0,.99-.13,1.33-.39.34-.26.6-.58.79-.98.18-.39.31-.82.37-1.29.06-.47.09-.91.09-1.33,0-2.57,0-3.85,0-6.42,0-.89-.02-1.64-.06-2.27-.04-.63-.09-1.14-.13-1.54-.05-.45-.11-.83-.18-1.12h3.26Z"/>
    <path d="M160.67,119.08c.26.53.5.96.68,1.28.22.38.41.71.59.95-1.67-.05-2.5-.08-4.17-.12-.01-.28-.06-.65-.16-1.08-.08-.37-.21-.84-.39-1.39-.17-.56-.42-1.21-.73-1.95-.67-1.59-1-2.38-1.67-3.97-.23.39-.34.58-.57.96-.1.16-.18.31-.27.46-.08.15-.17.29-.25.43,0,.61,0,.91,0,1.52,0,.91.02,1.67.05,2.28.04.61.09,1.13.14,1.52.06.44.11.83.2,1.13-1.31-.03-1.96-.04-3.27-.06.07-.3.13-.67.18-1.12.04-.4.09-.91.13-1.52.04-.61.06-1.37.06-2.28,0-2.82,0-5.64,0-8.45,0-.89-.02-1.65-.06-2.28-.04-.63-.09-1.14-.13-1.54-.05-.45-.11-.83-.18-1.12h3.27c-.08.3-.14.69-.2,1.13-.05.39-.11.92-.14,1.55-.04.63-.05,1.39-.05,2.28,0,.8,0,1.2,0,1.99.61-1.01.91-1.52,1.52-2.54.44-.73.79-1.38,1.05-1.93.26-.55.47-1.01.61-1.38.17-.44.29-.81.36-1.11h3.9c-.2.25-.45.57-.73.95-.24.33-.53.76-.88,1.27-.35.51-.74,1.13-1.18,1.87-.69,1.15-1.03,1.72-1.72,2.86.02.09.05.16.09.22.04.06.07.14.09.22,1.18,2.8,1.77,4.21,2.96,7.04.31.75.6,1.39.86,1.91Z"/>
    <path d="M173.95,116.69c.18.95.35,1.75.51,2.39.16.64.31,1.18.44,1.61.15.48.29.88.43,1.2-1.41-.08-2.11-.11-3.52-.18.02-.25.03-.58,0-.98-.02-.34-.06-.78-.11-1.32-.05-.53-.14-1.19-.27-1.97-1.66-.06-2.49-.09-4.15-.14-.13.76-.22,1.41-.27,1.93-.05.53-.08.96-.11,1.3-.03.39-.02.71,0,.96-1.41-.06-2.12-.08-3.53-.13.13-.3.27-.68.41-1.13.13-.4.28-.91.44-1.53.16-.62.34-1.38.53-2.3.57-2.87,1.13-5.73,1.69-8.6.18-.91.31-1.68.4-2.33.09-.64.14-1.17.17-1.58.03-.46.05-.85.04-1.15,1.83,0,2.75,0,4.58,0-.02.31,0,.71.04,1.17.03.4.08.95.17,1.6.09.65.22,1.44.4,2.36.57,2.94,1.14,5.89,1.7,8.83ZM170.83,114.01c-.44-2.48-.66-3.71-1.09-6.18-.06-.38-.13-.73-.2-1.07-.07-.33-.14-.65-.2-.96-.06.31-.12.62-.2.95-.07.33-.14.69-.2,1.06-.44,2.45-.65,3.67-1.09,6.11,1.19.03,1.78.05,2.97.08Z"/>
    <path d="M182.12,102.73c.93,0,1.77.21,2.52.65.75.43,1.39,1.08,1.91,1.93s.92,1.91,1.2,3.15c.28,1.24.42,2.67.42,4.26,0,1.6-.14,3.01-.42,4.23-.28,1.22-.68,2.24-1.2,3.06-.52.82-1.15,1.42-1.9,1.8-.75.38-1.59.54-2.52.48-1.86-.12-2.79-.18-4.65-.29.07-.31.13-.7.18-1.17.04-.42.09-.95.13-1.59.04-.64.06-1.44.06-2.4,0-2.97,0-5.94,0-8.91,0-.94-.02-1.74-.06-2.4s-.09-1.21-.14-1.63c-.05-.47-.11-.87-.18-1.18h4.65ZM182.13,118.78c.63.03,1.17-.09,1.6-.36.43-.28.79-.68,1.05-1.23.27-.54.46-1.2.58-1.96.12-.77.18-1.63.18-2.59,0-.96-.06-2.06-.18-2.83-.12-.78-.31-1.44-.58-2-.27-.56-.62-.99-1.06-1.3-.44-.31-.97-.46-1.6-.47-.71,0-1.06-.01-1.77-.02,0,4.15,0,8.53,0,12.68.71.04,1.06.06,1.77.09Z"/>
    <path d="M200.35,118.12c.18,1.05.35,1.94.51,2.66.16.72.31,1.31.44,1.79.14.53.29.98.43,1.34-1.41-.14-2.11-.21-3.52-.34.02-.28.03-.64,0-1.07-.02-.38-.06-.86-.11-1.45-.05-.59-.14-1.31-.27-2.18-1.66-.12-2.49-.17-4.15-.28-.13.83-.22,1.53-.27,2.1-.05.57-.08,1.04-.11,1.41-.03.42-.02.78,0,1.05-1.41-.12-2.11-.18-3.52-.29.13-.32.27-.72.41-1.21.13-.43.28-.98.44-1.64.16-.66.34-1.49.53-2.48.57-3.1,1.13-6.2,1.69-9.3.18-.99.31-1.83.4-2.53.09-.7.14-1.28.17-1.72.03-.5.05-.92.04-1.25h4.58c-.02.34,0,.77.04,1.28.03.45.08,1.04.17,1.76.09.72.22,1.58.4,2.6.57,3.25,1.14,6.5,1.7,9.75ZM197.23,115.09c-.44-2.73-.66-4.08-1.09-6.78-.06-.41-.13-.8-.2-1.17-.07-.36-.14-.71-.2-1.05-.06.33-.12.68-.2,1.04-.07.36-.14.75-.2,1.16-.44,2.67-.65,4-1.09,6.65,1.19.06,1.78.09,2.97.16Z"/>
    <path d="M206.94,104.07c-.04.47-.09,1.08-.13,1.83-.04.74-.05,1.64-.05,2.69,0,3.34,0,6.67,0,10.01,0,1.07.02,1.97.05,2.7.04.73.08,1.33.13,1.81.05.54.11.99.2,1.35-1.31-.14-1.96-.21-3.27-.34.07-.34.14-.77.2-1.29.05-.46.09-1.05.13-1.76.04-.71.06-1.6.06-2.66,0-3.3,0-6.59,0-9.89,0-1.04-.02-1.93-.06-2.66-.04-.73-.08-1.34-.13-1.81-.06-.53-.13-.97-.2-1.31h3.27c-.08.35-.15.8-.2,1.33Z"/>
  </g>
  <g>
    <path d="M163.89,59.29c-1.19.78-6.77-4.52-13.17-2.66-9.96,2.89-11.23,25.49-12.65,34.77-.09.6.86,1.95,1.16,2.52.27.5.25,1.22-.3,1.37-5.54,1.54-11.63.53-13.08,0-1.6-.7.49-2.71.27-3.89-.41-2.15-4.54-22.12-5.88-28.22-1.31-1.62-3.57-3.23-.41-3.23,2.13,0,4.18,0,6.31,0,2.63,0,.15,1.58-.07,2.81-.21,1.16,3.99,22.31,5.52,26.27.4,1.03.87,1.08,1.32-.02,1.56-3.83,2.08-26.7,10.52-33.86,5.46-4.63,13.96-3.32,17.78-.8,1.2.79,4.43,3.77,2.67,4.94Z"/>
    <path d="M155.22,70.5c4.74,4.03,9.69,8.04,10.63,13.87.66,4.11-1.23,8.76-5.67,11.08-13.72,7.2-24.2-10.71-12.29-15.25,5.9-2.25,11.45,2.71,6.8,7.39-.87.88-2.62.86-2.32-.53.21-.97.56-2.11-.72-2.65-.8-.34-1.73-.31-2.49.12-.85.48-1.4,1.4-1.54,2.36s.1,1.96.57,2.82c1.84,3.41,5.98,4.46,9.22,2.37,1.27-.82,2.57-2.22,3.04-3.69,1.2-3.78-.49-7.16-3.27-10.19-3.51-3.83-10.38-8.4-8.88-13.26,1.07-2.58,3.66-5.54,9.73-3.65,1.74.54,3.9,1.64,5.91,1.97.31.05.46.41.26.66-.56.7-1.56,1.11-2.06,1.9-.65.93-.81,2.08-1.32,3.05-.24.46-1.04.74-1.13.26-1.4-7.33-10.81-4.32-4.45,1.38Z"/>
  </g>
  <g>
    <path d="M78.16,131.8c0,.2.02.38.07.54.05.16.12.3.22.41.1.11.22.19.37.25.15.05.32.07.52.06.19-.01.36-.05.52-.11.15-.06.28-.12.39-.19.12-.08.24-.16.34-.26,0,.36,0,.54,0,.89-.11.06-.23.12-.37.17-.12.05-.26.09-.42.13-.16.04-.34.07-.54.08-.62.05-1.09-.09-1.43-.42-.34-.32-.5-.82-.5-1.49,0-.31.05-.59.14-.85.09-.26.22-.49.4-.68.17-.19.38-.35.62-.47.24-.12.52-.19.82-.21.15-.01.28-.01.4,0,.12.01.23.03.33.05,0,0,0,0,.01,0,0,0,0,0,.01,0,.05.01.09.02.14.01.04,0,.08,0,.11-.01.04,0,.07-.02.1-.03,0,.43,0,.64,0,1.07-.09-.08-.19-.15-.3-.21-.1-.05-.21-.09-.34-.13-.13-.04-.28-.05-.45-.04-.18.01-.35.06-.49.14-.14.08-.26.18-.36.31-.1.13-.17.27-.22.44-.05.17-.08.35-.08.55Z"/>
    <path d="M83.53,132.54c.13,0,.24.03.33.11.09.08.14.19.14.31,0,.13-.05.24-.14.34-.09.09-.2.15-.33.16-.12,0-.23-.03-.32-.11-.09-.08-.13-.19-.13-.32,0-.12.04-.23.13-.33.09-.09.2-.15.32-.16Z"/>
    <path d="M89.1,129.62c.02-.14.04-.25.05-.34,0-.1.01-.18,0-.24.44-.03.67-.04,1.11-.07-.04.07-.08.15-.13.25-.04.09-.09.2-.14.34-.05.14-.11.31-.16.5-.22.75-.32,1.12-.54,1.86-.06.2-.1.37-.13.5-.03.13-.04.25-.05.33-.01.1-.02.18-.01.24-.58.04-.87.06-1.45.09,0-.06,0-.15-.01-.24,0-.08-.03-.19-.05-.32-.03-.13-.07-.29-.13-.48-.21-.72-.32-1.08-.54-1.79-.06-.19-.12-.35-.17-.48-.05-.13-.1-.24-.14-.32-.05-.09-.09-.17-.13-.23.45-.03.67-.04,1.11-.07-.01.07,0,.15,0,.24,0,.09.02.2.05.33.02.13.06.3.11.49.2.72.3,1.08.49,1.8.02.08.04.15.07.22.02.07.04.13.06.19.02-.06.04-.13.07-.2.02-.07.04-.15.06-.23.19-.74.29-1.12.49-1.86.05-.2.09-.36.12-.5Z"/>
    <path d="M94.67,131.96c.19-.01.36-.03.5-.05.14-.02.25-.04.34-.06.1-.02.18-.05.25-.08-.03.33-.05.5-.08.84-1.21.07-1.82.1-3.03.18.02-.07.04-.15.06-.25.02-.09.03-.2.04-.33.01-.13.02-.3.02-.49,0-.73,0-1.1,0-1.83,0-.19,0-.36-.02-.49-.01-.14-.03-.25-.04-.33-.02-.1-.04-.18-.06-.24.19-.01.29-.02.48-.03.96-.06,1.44-.08,2.39-.14.03.33.05.5.08.83-.06-.02-.15-.04-.25-.05-.09-.01-.2-.02-.34-.02-.14,0-.3,0-.5,0-.38.02-.57.03-.94.06,0,.05,0,.11,0,.17v.19c0,.22,0,.33,0,.55.26-.02.4-.02.66-.04.19-.01.36-.03.49-.05.14-.02.25-.04.33-.06.1-.02.18-.05.24-.08,0,.38,0,.57,0,.96-.06-.02-.15-.04-.24-.05-.09-.01-.2-.02-.33-.02-.14,0-.3,0-.49,0-.26.02-.4.02-.66.04,0,.22,0,.34,0,.56v.18c0,.06,0,.11,0,.17.44-.03.66-.04,1.1-.06Z"/>
    <path d="M99.77,131.68c.19,0,.36-.02.5-.04.14-.02.25-.04.34-.06.1-.02.18-.05.25-.07-.03.33-.05.5-.08.84-1.01.05-1.52.08-2.53.13.02-.07.04-.15.06-.25.02-.09.03-.2.04-.33.01-.13.02-.3.02-.49,0-.73,0-1.1,0-1.83,0-.19,0-.36-.02-.49-.01-.14-.03-.25-.04-.33-.02-.1-.04-.18-.06-.24.41-.02.62-.03,1.04-.05-.03.07-.05.15-.06.25-.01.09-.03.2-.04.34-.01.14-.02.3-.02.49,0,.73,0,1.1,0,1.83v.18c0,.06,0,.11,0,.17.24-.01.36-.02.61-.03Z"/>
    <path d="M106.57,131.01c.06.19.11.36.16.49.05.13.1.24.14.32.05.1.09.18.14.24-.45.02-.67.03-1.12.05,0-.05,0-.12,0-.2,0-.07-.02-.16-.03-.27-.02-.11-.04-.25-.08-.41-.53.02-.79.03-1.31.06-.04.16-.07.3-.09.41-.02.11-.03.2-.03.28,0,.08,0,.15,0,.2-.45.02-.67.03-1.12.05.04-.07.08-.15.13-.25.04-.09.09-.2.14-.33.05-.13.11-.3.17-.5.22-.74.32-1.11.54-1.85.06-.2.1-.36.13-.5.03-.14.04-.25.05-.34,0-.1.02-.18.01-.24.58-.03.87-.04,1.45-.07,0,.06,0,.15.01.24.01.08.03.2.05.33.03.13.07.3.13.49.22.72.32,1.08.54,1.81ZM105.59,130.51c-.14-.51-.21-.77-.35-1.28-.02-.08-.04-.15-.06-.22-.02-.07-.04-.13-.06-.2-.02.06-.04.13-.06.2-.02.07-.04.15-.06.23-.14.52-.21.78-.35,1.31.38-.02.56-.03.94-.04Z"/>
    <path d="M110.75,128.61c.07-.15.12-.28.16-.38.04-.12.07-.22.09-.31.46-.02.7-.03,1.16-.04-.06.07-.14.15-.22.25-.07.09-.15.2-.24.34-.09.14-.2.31-.32.5-.2.34-.31.5-.51.84-.02.04-.03.06-.06.1,0,.36,0,.55,0,.91,0,.2,0,.36.02.49.01.13.03.24.04.33.02.1.04.18.06.24-.41.02-.62.02-1.04.04.02-.07.04-.15.06-.25.02-.09.03-.2.04-.33.01-.13.02-.3.02-.49,0-.39,0-.58,0-.97-.01-.02-.02-.02-.03-.04-.2-.32-.3-.48-.5-.8-.12-.19-.23-.35-.33-.48-.1-.13-.18-.24-.25-.32-.08-.09-.15-.17-.21-.24.46-.02.69-.03,1.15-.05.02.09.05.19.09.3.04.1.09.22.16.36.07.15.17.31.29.5.01.02.02.03.03.05.01-.02.02-.03.03-.05.12-.2.22-.37.28-.52Z"/>
    <path d="M117.89,127.7c-.03.07-.05.15-.06.25-.01.09-.03.2-.04.34-.01.14-.02.3-.02.49,0,.56,0,.84,0,1.39,0,.22-.03.43-.1.63-.07.19-.17.36-.31.51-.14.15-.3.26-.5.35-.2.09-.43.13-.7.14-.26,0-.5-.02-.7-.1-.2-.07-.37-.18-.51-.32-.14-.14-.24-.3-.31-.49-.07-.19-.1-.4-.1-.62,0-.56,0-.84,0-1.39,0-.19,0-.36-.02-.49-.01-.14-.03-.25-.04-.33-.02-.1-.04-.18-.06-.24.41-.01.62-.02,1.04-.03-.03.07-.05.15-.06.25-.01.09-.03.2-.04.34-.01.14-.02.3-.02.49,0,.56,0,.84,0,1.39,0,.09,0,.19.03.29.02.1.06.19.12.28.06.08.14.15.25.2.11.05.25.08.42.07.17,0,.31-.04.42-.1.11-.06.19-.13.25-.22.06-.09.1-.18.12-.28s.03-.2.03-.29c0-.56,0-.84,0-1.39,0-.19,0-.36-.02-.49-.01-.14-.03-.25-.04-.33-.02-.1-.03-.18-.06-.24.41-.01.62-.02,1.03-.03Z"/>
    <path d="M123.03,128.34c-.09-.01-.2-.02-.34-.03-.14,0-.3-.01-.5,0,0,.87,0,1.31,0,2.19,0,.2,0,.36.02.49.01.13.03.24.05.33.02.09.04.18.06.24-.41,0-.62.02-1.04.03.02-.06.04-.15.06-.24.01-.09.03-.2.04-.33.01-.13.02-.3.02-.49,0-.87,0-1.31,0-2.19-.19,0-.36.02-.49.03-.14.02-.25.03-.33.05-.1.02-.18.04-.25.07.03-.34.05-.5.08-.84,1.11-.03,1.67-.04,2.79-.07.03.33.05.5.09.84-.06-.02-.15-.04-.25-.06Z"/>
    <path d="M129.12,127.69c-.01.09-.03.2-.04.33-.01.14-.02.3-.02.49,0,.73,0,1.1,0,1.83,0,.2,0,.36.02.49.01.13.03.24.04.33.02.1.04.18.06.24-.41,0-.62,0-1.04.02.02-.06.04-.15.06-.24.02-.09.03-.2.04-.33.01-.13.02-.3.02-.49,0-.22,0-.34,0-.56-.66.01-.99.02-1.64.03,0,.22,0,.34,0,.56,0,.2,0,.36.02.49.01.13.03.24.05.33.02.09.04.18.06.24-.41,0-.62.01-1.04.02.02-.06.04-.15.06-.24.01-.09.03-.2.04-.33.01-.13.02-.3.02-.49,0-.73,0-1.1,0-1.83,0-.19,0-.36-.02-.49-.01-.14-.03-.25-.04-.33-.02-.1-.03-.18-.06-.24.41,0,.62-.01,1.04-.02-.03.06-.04.15-.06.24-.02.09-.03.2-.05.33-.01.14-.02.3-.02.49,0,.22,0,.33,0,.55.66-.01.99-.02,1.64-.03,0-.22,0-.33,0-.55,0-.19,0-.36-.02-.49-.01-.14-.03-.25-.04-.33-.02-.1-.04-.18-.06-.24.41,0,.62-.01,1.04-.02-.03.06-.05.15-.06.24Z"/>
    <path d="M134.91,130.27c.06.2.11.36.16.49.05.13.1.24.14.33.05.1.09.18.14.24-.45,0-.67,0-1.12,0,0-.05,0-.12,0-.2,0-.07-.02-.16-.03-.27-.02-.11-.04-.25-.08-.41-.53,0-.79,0-1.31.01-.04.16-.07.3-.09.41-.02.11-.03.2-.03.27,0,.08,0,.15,0,.2-.45,0-.67,0-1.12.01.04-.06.08-.15.13-.25.04-.09.09-.2.14-.33.05-.13.11-.3.17-.49.22-.73.32-1.1.54-1.84.06-.19.1-.36.13-.49.03-.14.04-.25.05-.33,0-.1.02-.18.01-.24.58,0,.87,0,1.45-.02,0,.06,0,.15.01.24.01.08.03.2.05.33.03.14.07.3.13.49.22.73.32,1.09.54,1.82ZM133.92,129.74c-.14-.51-.21-.77-.35-1.29-.02-.08-.04-.15-.06-.22-.02-.07-.04-.14-.06-.2-.02.06-.04.13-.06.2-.02.07-.04.14-.06.22-.14.52-.21.78-.35,1.29.38,0,.56,0,.94,0Z"/>
    <path d="M145.05,130.25c0,.2,0,.36.02.49.01.13.03.24.04.33.02.1.04.18.06.24-.51,0-.76,0-1.27,0-.64-1.14-.96-1.7-1.6-2.84,0,.71,0,1.06,0,1.77,0,.2,0,.36.02.49.01.13.03.24.04.33.02.1.04.18.06.24-.41,0-.62,0-1.04,0,.02-.06.04-.15.06-.24.02-.09.03-.2.04-.33.01-.13.02-.3.02-.49,0-.73,0-1.1,0-1.83,0-.19,0-.36-.02-.49-.01-.14-.03-.25-.04-.33-.02-.1-.04-.18-.06-.24.51,0,.76,0,1.27,0,.64,1.14.96,1.71,1.6,2.84,0-.71,0-1.06,0-1.77,0-.19,0-.36-.02-.49-.01-.14-.03-.25-.04-.33-.02-.1-.03-.18-.06-.24.41,0,.62,0,1.03,0-.03.06-.05.15-.06.24-.01.09-.03.2-.04.33-.01.14-.02.3-.02.49,0,.73,0,1.1,0,1.83Z"/>
    <path d="M150.89,130.29c.06.2.11.36.16.49.05.13.1.24.14.33.05.1.09.18.14.24-.45,0-.67,0-1.12-.01,0-.05,0-.12,0-.2,0-.07-.02-.16-.03-.27-.02-.11-.04-.25-.08-.41-.53,0-.79,0-1.31-.01-.04.16-.07.3-.09.41-.02.11-.03.2-.03.27,0,.08,0,.15,0,.2-.45,0-.67,0-1.12,0,.04-.06.08-.15.13-.24.04-.09.09-.2.14-.33.05-.13.11-.3.17-.49.22-.73.32-1.09.54-1.82.06-.19.1-.36.13-.49.03-.14.04-.25.05-.33,0-.1.02-.18.01-.24.58,0,.87,0,1.45.01,0,.06,0,.15.01.24.01.08.03.2.05.33.03.14.07.3.13.49.22.73.32,1.1.54,1.83ZM149.91,129.74c-.14-.52-.21-.78-.35-1.29-.02-.08-.04-.15-.06-.22-.02-.07-.04-.14-.06-.2-.02.06-.04.13-.06.2-.02.07-.04.14-.06.22-.14.52-.21.77-.35,1.29.38,0,.56,0,.94,0Z"/>
    <path d="M155.18,127.45c.29,0,.56.05.8.14.24.09.44.22.6.4.16.17.29.38.38.63.09.25.13.53.13.85s-.04.6-.13.84c-.09.24-.22.45-.38.62s-.37.29-.6.37c-.24.08-.5.12-.8.12-.59,0-.88-.01-1.47-.02.02-.06.04-.15.06-.24.01-.09.03-.2.04-.33.01-.13.02-.3.02-.49,0-.73,0-1.1,0-1.83,0-.19,0-.36-.02-.49-.01-.14-.03-.25-.04-.33-.02-.1-.03-.18-.06-.24.59,0,.88.01,1.47.02ZM155.18,130.7c.2,0,.37-.02.51-.08.14-.06.25-.14.33-.25.09-.11.15-.24.18-.4.04-.15.06-.33.06-.52s-.02-.37-.06-.52c-.04-.16-.1-.29-.18-.4-.08-.11-.2-.2-.33-.26-.14-.06-.31-.1-.51-.1-.22,0-.34,0-.56,0,0,1.01,0,1.52,0,2.54.22,0,.34,0,.56,0Z"/>
    <path d="M162.65,130.5c.06.2.11.36.16.5.05.13.1.24.14.33.05.1.09.18.14.25-.45-.01-.67-.02-1.12-.03,0-.05,0-.12,0-.2,0-.07-.02-.16-.03-.28-.02-.11-.04-.25-.08-.41-.53-.01-.79-.02-1.31-.03-.04.16-.07.3-.09.41-.02.11-.03.2-.03.27,0,.08,0,.15,0,.2-.45,0-.67-.01-1.12-.02.04-.06.08-.14.13-.24.04-.09.09-.19.14-.33.05-.13.11-.29.17-.49.22-.73.32-1.09.54-1.82.06-.19.1-.35.13-.49.03-.14.04-.25.05-.33,0-.1.02-.18.01-.24.58.01.87.02,1.45.03,0,.06,0,.15.01.24.01.08.03.2.05.34.03.14.07.3.13.5.22.74.32,1.11.54,1.84ZM161.67,129.93c-.14-.52-.21-.78-.35-1.3-.02-.08-.04-.15-.06-.23-.02-.07-.04-.14-.06-.2-.02.06-.04.13-.06.2-.02.07-.04.14-.06.22-.14.51-.21.77-.35,1.28.38,0,.56.01.94.02Z"/>
    <path d="M167.94,130.84c.1.16.2.3.28.41.09.11.16.21.22.28.07.08.13.15.19.2-.51-.02-.77-.02-1.28-.04,0-.06-.02-.14-.05-.23-.03-.08-.07-.18-.12-.3-.05-.12-.13-.26-.23-.42-.13-.21-.19-.32-.32-.53-.1,0-.14,0-.24,0,0,.16,0,.24,0,.4,0,.2,0,.36.02.49.01.13.03.24.04.33.02.1.04.18.06.25-.41-.01-.62-.02-1.04-.03.02-.06.04-.14.06-.24.02-.09.03-.2.04-.33.01-.13.02-.3.02-.49,0-.73,0-1.1,0-1.83,0-.19,0-.36-.02-.49-.01-.14-.03-.25-.04-.34-.02-.1-.04-.18-.06-.25.6.02.9.03,1.51.04.19,0,.37.04.54.1.17.06.31.14.43.25.12.11.22.24.29.4.07.16.1.34.1.54,0,.31-.08.56-.23.75-.15.19-.35.32-.6.39.17.27.26.41.43.68ZM166.39,129.48c.24,0,.36.01.59.02.07,0,.14,0,.21-.02.07-.02.13-.05.18-.09.05-.04.09-.1.12-.16.03-.07.05-.15.05-.24s-.02-.17-.05-.24c-.03-.07-.07-.13-.12-.17-.05-.05-.11-.08-.18-.1-.07-.02-.14-.04-.21-.04-.24,0-.35-.01-.59-.02,0,.05,0,.11,0,.17s0,.12,0,.19c0,.29,0,.43,0,.71Z"/>
    <path d="M175.45,129.05c0,.1.05.19.14.27.09.08.21.15.35.22.14.07.3.15.46.23.17.08.32.18.46.29.14.11.26.25.35.41.09.16.14.35.14.57,0,.17-.04.31-.11.44-.08.13-.18.23-.31.32-.13.09-.28.15-.46.19-.17.04-.36.06-.56.05-.14,0-.27-.02-.4-.05-.12-.03-.24-.05-.34-.08-.1-.03-.19-.06-.26-.09-.07-.03-.12-.05-.15-.07,0-.36,0-.54,0-.91.1.09.22.16.34.23.11.06.23.12.36.17.13.05.28.08.43.09.2,0,.35-.02.48-.09.12-.07.18-.16.18-.29,0-.06-.02-.12-.07-.18-.04-.05-.1-.1-.18-.15-.08-.05-.17-.1-.27-.15-.1-.05-.22-.11-.34-.17-.12-.06-.23-.12-.35-.18-.11-.06-.22-.14-.32-.22-.27-.23-.4-.5-.4-.82,0-.18.04-.35.12-.49.08-.15.19-.27.33-.36.12-.08.27-.14.46-.18.18-.04.37-.05.56-.05.14,0,.3.02.48.06.17.03.34.08.49.14,0,.32,0,.49,0,.81-.09-.05-.19-.1-.29-.14-.09-.03-.19-.07-.31-.1-.12-.03-.24-.05-.36-.05-.07,0-.14,0-.22,0-.08,0-.15.02-.22.05-.07.03-.12.06-.17.1s-.07.1-.07.17Z"/>
    <path d="M184.36,129c.02-.13.04-.25.05-.33,0-.1.01-.18,0-.24.44.02.67.03,1.11.06-.04.06-.08.14-.13.24-.04.08-.09.19-.14.33-.05.13-.11.29-.16.48-.22.72-.32,1.08-.54,1.8-.06.19-.1.36-.13.49-.03.13-.04.24-.05.33-.01.09-.02.18-.01.24-.52-.03-.77-.04-1.29-.07,0-.06,0-.15-.01-.24,0-.09-.03-.2-.05-.33-.03-.13-.07-.3-.13-.5-.14-.48-.21-.73-.35-1.21-.14.47-.21.71-.36,1.18-.06.19-.1.36-.13.49-.03.13-.04.24-.05.33-.01.09-.02.18-.01.24-.52-.02-.77-.04-1.29-.06,0-.06,0-.15-.01-.24,0-.09-.02-.2-.05-.33-.03-.13-.07-.3-.12-.5-.22-.74-.33-1.11-.54-1.85-.06-.2-.11-.36-.16-.5-.05-.14-.1-.25-.14-.34-.05-.1-.09-.18-.13-.25.45.02.67.03,1.12.05,0,.06,0,.15,0,.24,0,.09.02.2.05.34.02.14.06.3.11.5.19.74.29,1.11.49,1.85,0,.03.02.06.03.09,0,.03.02.05.03.08,0-.03.01-.05.02-.08,0-.03.01-.05.02-.08.2-.72.3-1.08.49-1.81.05-.19.09-.36.11-.49.02-.13.04-.25.05-.33,0-.04,0-.08,0-.11,0-.03,0-.05,0-.07,0-.02,0-.04,0-.06.39.02.59.03.98.05,0,.02,0,.03,0,.06v.07s0,.07,0,.11c0,.09.02.2.05.34.02.14.06.3.12.5.19.74.29,1.11.49,1.85,0,.03.02.06.03.09,0,.03.02.05.03.08,0-.03.01-.05.02-.08,0-.03.01-.05.02-.08.2-.72.3-1.08.49-1.8.05-.19.09-.35.11-.49Z"/>
    <path d="M189.92,131.98c.19.01.36.02.5.01.14,0,.25-.01.34-.02.1-.01.18-.03.25-.05-.03.33-.05.5-.08.83-1.21-.07-1.82-.11-3.03-.17.02-.06.04-.14.06-.24.02-.08.03-.19.04-.33.01-.13.02-.3.02-.49,0-.73,0-1.1,0-1.83,0-.19,0-.36-.02-.49-.01-.14-.03-.25-.04-.34-.02-.1-.04-.18-.06-.25.19.01.29.02.48.03.96.05,1.44.08,2.39.14.03.34.05.51.08.84-.06-.03-.15-.05-.25-.08-.09-.02-.2-.04-.34-.06-.14-.02-.3-.04-.5-.05-.38-.02-.57-.03-.95-.05,0,.05,0,.11,0,.17,0,.06,0,.12,0,.19,0,.22,0,.33,0,.55.26.02.4.02.66.04.19.01.36.01.49.01.14,0,.25-.01.33-.02.1-.01.18-.03.24-.05v.96c-.06-.03-.15-.05-.24-.08-.09-.02-.2-.04-.33-.06-.14-.02-.3-.04-.49-.05-.26-.02-.4-.02-.66-.04,0,.22,0,.34,0,.56,0,.06,0,.13,0,.18s0,.11,0,.17c.44.03.66.04,1.1.06Z"/>
    <path d="M195.52,132.32c.19.01.36.02.49.02s.25,0,.34-.02c.1,0,.18-.02.25-.05-.03.33-.05.5-.08.83-1.21-.08-1.82-.12-3.03-.19.02-.06.04-.14.06-.24.02-.08.03-.19.04-.33.01-.13.02-.3.02-.49,0-.73,0-1.1,0-1.83,0-.19,0-.36-.02-.49-.01-.14-.03-.25-.04-.34-.02-.1-.04-.18-.06-.25.19.01.29.02.48.03.96.06,1.44.09,2.39.15.03.34.05.51.08.84-.06-.03-.15-.05-.25-.08-.09-.02-.2-.04-.34-.06-.14-.02-.3-.04-.49-.05-.38-.02-.57-.04-.94-.06,0,.05,0,.11,0,.17s0,.12,0,.19c0,.22,0,.33,0,.55.26.02.4.03.66.04.19.01.36.02.49.01.14,0,.25,0,.33-.02.1,0,.18-.02.24-.05,0,.38,0,.57,0,.96-.06-.03-.15-.05-.24-.08-.09-.02-.2-.04-.33-.06-.14-.02-.3-.04-.49-.05-.26-.02-.4-.03-.66-.04,0,.22,0,.34,0,.56,0,.06,0,.13,0,.18s0,.11,0,.17c.44.03.66.04,1.1.07Z"/>
    <path d="M201.56,130.26c-.09-.02-.2-.04-.34-.07-.14-.02-.3-.04-.49-.06,0,.87,0,1.31,0,2.19,0,.2,0,.36.02.49.01.13.03.25.05.33.02.1.04.18.06.25-.41-.03-.62-.04-1.03-.07.02-.06.04-.14.06-.24.01-.08.03-.19.04-.33.01-.13.02-.3.02-.49,0-.87,0-1.31,0-2.19-.19-.01-.36-.02-.49-.01-.14,0-.25,0-.33.02-.1.01-.18.03-.25.05.03-.33.05-.5.08-.83,1.11.08,1.67.12,2.78.2.03.34.05.51.08.84-.06-.03-.15-.05-.25-.08Z"/>
    <path d="M204.97,130.77c0,.1.05.19.14.27.09.08.21.16.35.23.14.08.29.16.46.25.17.09.32.19.46.31.14.12.26.26.35.42.09.16.14.35.14.58,0,.17-.04.31-.11.44-.08.12-.18.23-.31.31-.13.08-.28.14-.46.17-.17.04-.36.05-.56.03-.14-.01-.27-.03-.4-.06-.12-.03-.24-.06-.34-.1-.1-.03-.19-.07-.26-.1-.07-.03-.12-.06-.15-.08,0-.36,0-.54,0-.91.1.09.22.17.34.25.11.06.23.12.36.18.13.06.28.09.43.1.2.02.35,0,.47-.07.12-.06.18-.16.18-.29,0-.06-.02-.12-.06-.18-.04-.05-.1-.11-.18-.16-.08-.05-.16-.1-.27-.16-.1-.05-.22-.11-.34-.18-.12-.06-.23-.13-.34-.19-.11-.07-.22-.14-.32-.23-.27-.24-.4-.51-.4-.83,0-.18.04-.34.12-.49.08-.14.19-.26.33-.35.12-.08.27-.13.46-.16.18-.03.37-.04.56-.03.14.01.3.04.47.07.17.04.34.09.49.15,0,.32,0,.49,0,.81-.09-.05-.19-.1-.29-.15-.09-.04-.19-.07-.31-.11-.12-.04-.24-.06-.36-.07-.07,0-.14,0-.22,0-.08,0-.15.02-.21.04-.07.02-.12.06-.17.1-.05.04-.07.1-.07.16Z"/>
  </g>
  <g>
    <path d="M91.4,87.87c-.23,0-.46-.04-.68-.13-.22-.08-.41-.2-.56-.35-.33-.32-.49-.72-.49-1.18v-.75h1.02v.75c0,.2.07.36.2.5s.3.2.5.2.35-.07.49-.2.2-.3.2-.5v-.25c0-.16-.03-.3-.08-.42-.06-.13-.13-.24-.22-.35-.09-.11-.2-.21-.32-.31-.12-.1-.25-.2-.39-.3-.07-.04-.14-.09-.22-.16-.13-.09-.26-.19-.39-.28-.13-.1-.24-.2-.34-.32-.31-.37-.47-.79-.47-1.27v-.25c0-.22.04-.43.12-.63.08-.2.2-.38.37-.54.15-.15.33-.27.56-.36.22-.09.45-.13.68-.13s.46.04.68.13c.22.09.41.21.56.36.16.16.27.33.36.54.08.2.12.41.12.63v.76h-1.02v-.76c0-.19-.07-.35-.2-.49-.14-.14-.3-.21-.49-.21s-.36.07-.5.21c-.14.14-.2.3-.2.49v.25c0,.13.02.25.06.36.04.11.11.21.19.31.08.1.19.2.3.29.12.1.25.2.4.31.08.05.15.1.21.16.14.1.27.2.41.3s.26.22.36.34c.32.4.48.85.48,1.35v.25c0,.46-.16.85-.48,1.18-.15.15-.33.27-.56.35-.22.08-.45.13-.68.13Z"/>
    <path d="M93.9,87.73v-6.96h1.02v6.96h-1.02Z"/>
    <path d="M98.62,87.73l-1.7-4.39v4.39h-1.02v-6.96h1.18l1.66,4.31v-4.31h1.02v6.96h-1.14Z"/>
    <path d="M102.37,87.87c-.23,0-.46-.04-.69-.13-.22-.08-.41-.2-.56-.35-.16-.16-.28-.34-.36-.54-.08-.2-.13-.41-.13-.64v-3.92c0-.22.04-.43.13-.63.08-.2.2-.38.36-.54s.34-.27.56-.36c.22-.09.45-.13.69-.13s.45.04.67.13c.22.09.41.21.56.36.16.16.28.33.37.54.08.2.12.41.12.63v.76h-1.02v-.76c0-.19-.07-.35-.2-.49-.14-.14-.3-.21-.49-.21s-.36.07-.5.21c-.14.14-.2.3-.2.49v3.92c0,.2.07.36.2.5s.3.2.5.2.35-.07.49-.2.2-.3.2-.5v-.75h1.02v.75c0,.46-.16.86-.49,1.18-.15.15-.33.27-.56.35-.22.08-.45.13-.67.13Z"/>
    <path d="M104.97,87.73v-6.96h2.84v.89h-1.81v2.16h1.53v.89h-1.53v2.15h1.81v.89h-2.84Z"/>
  </g>
  <g>
    <path d="M178.2,87.73v-1.02h.69v-4.28l-.18.23-.76-.57.98-1.33h.98v5.94h.7v1.02h-2.42Z"/>
    <path d="M183.09,87.87c-.23,0-.44-.04-.65-.13s-.39-.2-.55-.36c-.33-.33-.5-.73-.5-1.2v-.6h1.02v.6c0,.19.06.35.2.47.13.13.29.19.48.19s.35-.06.47-.19.19-.28.19-.47v-1.04c-.21.09-.44.14-.66.14s-.44-.04-.65-.13-.39-.21-.55-.37c-.16-.16-.29-.35-.37-.55-.08-.2-.13-.42-.13-.65v-1.25c0-.47.17-.87.5-1.2.16-.16.35-.28.55-.37s.42-.13.65-.13.44.04.64.13c.2.09.38.21.55.37.33.33.5.73.5,1.2v3.85c0,.47-.17.87-.5,1.2-.16.16-.34.28-.55.36-.2.08-.42.13-.64.13ZM183.09,81.66c-.19,0-.35.07-.48.2s-.2.29-.2.48v1.25c0,.19.06.35.2.48.13.13.29.2.48.2s.35-.06.47-.2c.13-.13.19-.29.19-.48v-1.25c0-.19-.06-.35-.19-.48-.13-.13-.28-.2-.47-.2Z"/>
    <path d="M187.35,87.87c-.23,0-.44-.04-.64-.13s-.38-.2-.55-.36c-.33-.33-.5-.73-.5-1.2v-.6h1.02v.6c0,.19.06.35.19.47s.28.19.47.19.35-.06.47-.19.19-.28.19-.47v-1.66c0-.19-.06-.35-.19-.48-.13-.13-.28-.2-.47-.2s-.35.07-.47.2c-.13.13-.19.29-.19.48v.19h-1.03l.31-3.94h2.97v1.02h-2.02l-.09,1.12c.16-.06.34-.09.53-.09.23,0,.44.04.65.13.2.08.39.21.55.37.32.33.49.73.49,1.2v1.66c0,.47-.16.87-.49,1.2-.16.16-.35.28-.55.36s-.42.13-.65.13Z"/>
    <path d="M191.62,87.87c-.23,0-.44-.04-.64-.13s-.38-.2-.55-.36c-.33-.33-.5-.73-.5-1.2v-.6h1.02v.6c0,.19.06.35.19.47s.28.19.47.19.35-.06.47-.19.19-.28.19-.47v-1.66c0-.19-.06-.35-.19-.48-.13-.13-.28-.2-.47-.2s-.35.07-.47.2c-.13.13-.19.29-.19.48v.19h-1.03l.31-3.94h2.97v1.02h-2.02l-.09,1.12c.16-.06.34-.09.53-.09.23,0,.44.04.65.13.2.08.39.21.55.37.32.33.49.73.49,1.2v1.66c0,.47-.16.87-.49,1.2-.16.16-.35.28-.55.36s-.42.13-.65.13Z"/>
  </g>
  <polygon points="119.04 95.98 77.08 95.98 77.08 95.21 118.27 95.21 119.04 95.98"/>
  <polygon points="207.14 95.98 165.17 95.98 165.94 95.21 207.14 95.21 207.14 95.98"/>
</svg>